<svg width="48" height="48" viewBox="0 0 48 48" fill="none" xmlns="http://www.w3.org/2000/svg">
<path d="M24 48C37.2548 48 48 37.2548 48 24C48 10.7452 37.2548 0 24 0C10.7452 0 0 10.7452 0 24C0 37.2548 10.7452 48 24 48Z" fill="#006A34"/>
<path d="M40 23.0598L38.8198 23.1998C37.8198 23.0598 37.08 23.0598 35.96 22.9998C36.06 22.8798 36.24 22.3198 35.96 22.1598C35.8697 22.1261 35.7705 22.1261 35.6802 22.1598V22.1598C35.6228 22.0605 35.5821 21.9524 35.5601 21.8398V21.8398C35.4162 21.8588 35.2823 21.9232 35.1777 22.0238C35.0731 22.1244 35.0031 22.2558 34.9785 22.3988C34.9539 22.5418 34.976 22.6889 35.041 22.8186C35.106 22.9483 35.2106 23.054 35.3398 23.1199C27.3398 23.1199 15.3398 22.9998 12.7998 22.9998C11.3198 22.9998 6.80018 22.8398 6.68018 22.8398C7.18433 23.4685 7.83919 23.9595 8.58398 24.2672C9.32878 24.5749 10.1391 24.6894 10.9399 24.5999H35.2397C35.1218 24.8809 35.0857 25.1894 35.1353 25.4901C35.1848 25.7908 35.3182 26.0715 35.52 26.2998V26.2998C35.8 26.2998 35.9201 26.1598 36.0601 25.9998C36.5401 25.9998 39.3401 25.9998 39.5801 25.9998C39.8201 25.9998 39.9002 26.4598 40.2002 26.4598C40.7802 26.3198 41.2202 26.2599 41.2202 25.0999C41.3402 24.9199 41.28 22.9398 40 23.0598ZM39.4199 25.1798H38.4199C38.3199 24.9198 37.7201 24.9598 37.5601 25.1798C37.0675 25.2197 36.5726 25.2197 36.0801 25.1798C36.0055 25.1017 35.9639 24.9978 35.9639 24.8898C35.9639 24.7818 36.0055 24.678 36.0801 24.5999C37.2401 24.5999 38.3 24.5999 39.46 24.5999C39.5006 24.6358 39.5335 24.6796 39.5566 24.7288C39.5798 24.7779 39.5929 24.8312 39.5947 24.8855C39.5966 24.9398 39.5871 24.9938 39.5674 25.0444C39.5477 25.095 39.5181 25.1411 39.48 25.1798H39.4199Z" fill="white"/>
</svg>
