<svg width="48" height="48" viewBox="0 0 48 48" fill="none" xmlns="http://www.w3.org/2000/svg">
<mask id="mask0_2_1505" style="mask-type:alpha" maskUnits="userSpaceOnUse" x="0" y="0" width="48" height="48">
<circle cx="24" cy="24" r="24" fill="#D9D9D9"/>
</mask>
<g mask="url(#mask0_2_1505)">
<path d="M48 11.0508H0V14.7492H48V11.0508Z" fill="#F5F5F5"/>
<path d="M45.5031 3.66943H2.50948C1.58681 4.75153 0.893534 6.00976 0.47168 7.36782H47.5298C47.1112 6.01066 46.4218 4.75249 45.5031 3.66943V3.66943Z" fill="#F5F5F5"/>
<path d="M48 18.4326H0V22.131H48V18.4326Z" fill="#F5F5F5"/>
<path d="M48 25.8135H0V29.5119H48V25.8135Z" fill="#F5F5F5"/>
<path d="M48 33.1953H0V36.8937H48V33.1953Z" fill="#F5F5F5"/>
<path d="M47.5298 40.5771H0.47168C0.892912 41.9367 1.58623 43.1964 2.50948 44.2797H45.5031C46.4218 43.1967 47.1113 41.9385 47.5298 40.5813V40.5771Z" fill="#F5F5F5"/>
<path d="M37.4961 -0.0292841H10.5011C8.97892 -0.0316622 7.47453 0.298018 6.09285 0.93677C4.71116 1.57552 3.48542 2.50797 2.5011 3.6691H45.4877C44.5043 2.50904 43.2799 1.57723 41.8998 0.938523C40.5196 0.299813 39.0168 -0.0304518 37.4961 -0.0292841V-0.0292841Z" fill="#FF4B55"/>
<path d="M48 14.7393H0V18.4376H48V14.7393Z" fill="#FF4B55"/>
<path d="M47.9972 10.4754C47.9986 9.41776 47.8405 8.36597 47.5284 7.35547H0.468883C0.156729 8.36597 -0.00133761 9.41776 8.52584e-06 10.4754V11.0539H47.9972V10.4754Z" fill="#FF4B55"/>
<path d="M48 22.124H0V25.8224H48V22.124Z" fill="#FF4B55"/>
<path d="M47.9972 37.4667V36.8882H8.79449e-06V37.4667C-0.00135848 38.5243 0.156709 39.5761 0.468883 40.5866H47.5297C47.8419 39.576 47.9999 38.5243 47.9986 37.4667H47.9972Z" fill="#FF4B55"/>
<path d="M45.4881 44.2725H2.50977C3.49409 45.4336 4.71983 46.3661 6.10151 47.0048C7.4832 47.6436 8.98758 47.9732 10.5098 47.9709H37.4964C39.0172 47.972 40.5199 47.6418 41.9001 47.003C43.2803 46.3643 44.5047 45.4325 45.4881 44.2725V44.2725Z" fill="#FF4B55"/>
<path d="M48 29.5083H0V33.2067H48V29.5083Z" fill="#FF4B55"/>
<path d="M25.8852 -0.0292969H10.515C7.72625 -0.0292969 5.05172 1.07856 3.07977 3.05056C1.10783 5.02256 0 7.69717 0 10.486L0 25.8566H25.8852V-0.0292969Z" fill="#41479B"/>
<path d="M2.78426 4.0216C2.77927 4.03856 2.77963 4.05665 2.78528 4.0734C2.79094 4.09015 2.80162 4.10475 2.81587 4.11521C2.83013 4.12568 2.84726 4.13149 2.86493 4.13187C2.88261 4.13224 2.89997 4.12717 2.91466 4.11732L3.43208 3.75525L3.94396 4.1201C3.95864 4.12994 3.97601 4.13502 3.99368 4.13464C4.01136 4.13427 4.02849 4.12845 4.04274 4.11799C4.05699 4.10752 4.06767 4.09293 4.07333 4.07618C4.07899 4.05942 4.07935 4.04134 4.07436 4.02438L3.8857 3.4237L4.39203 3.05053C4.40558 3.03947 4.41544 3.02455 4.42029 3.00774C4.42514 2.99094 4.42475 2.97305 4.41917 2.95647C4.4136 2.93989 4.4031 2.92541 4.38908 2.91495C4.37506 2.90449 4.35818 2.89856 4.3407 2.89794H3.71369L3.60687 2.57471C3.33682 2.81022 3.07893 3.05932 2.8342 3.32104L2.98124 3.43064L2.78426 4.0216Z" fill="#F5F5F5"/>
<path d="M3.51399 7.27161L3.71375 7.86951H4.34354C4.36136 7.8698 4.37864 7.8756 4.39302 7.88613C4.40739 7.89666 4.41814 7.9114 4.42377 7.92831C4.42941 7.94521 4.42965 7.96346 4.42448 7.98051C4.4193 7.99756 4.40895 8.01258 4.39486 8.0235L3.88853 8.39666L4.07719 8.99595C4.08218 9.01291 4.08183 9.031 4.07617 9.04775C4.07051 9.0645 4.05983 9.0791 4.04558 9.08956C4.03133 9.10003 4.0142 9.10585 3.99652 9.10622C3.97884 9.1066 3.96148 9.10151 3.9468 9.09167L3.43492 8.72682L2.92304 9.09167C2.90836 9.10151 2.89099 9.1066 2.87332 9.10622C2.85564 9.10585 2.83851 9.10003 2.82426 9.08956C2.81001 9.0791 2.79933 9.0645 2.79367 9.04775C2.78801 9.031 2.78766 9.01291 2.79265 8.99595L2.9813 8.39666L2.47498 8.0235C2.46089 8.01258 2.45054 7.99756 2.44536 7.98051C2.44018 7.96346 2.44043 7.94521 2.44606 7.92831C2.4517 7.9114 2.46245 7.89666 2.47682 7.88613C2.49119 7.8756 2.50848 7.8698 2.5263 7.86951H3.15609L3.35585 7.27161C3.36226 7.25571 3.37328 7.24209 3.3875 7.2325C3.40171 7.2229 3.41846 7.21777 3.43561 7.21777C3.45276 7.21777 3.46952 7.2229 3.48373 7.2325C3.49794 7.24209 3.50896 7.25571 3.51538 7.27161H3.51399Z" fill="#F5F5F5"/>
<path d="M3.51523 12.8043L3.71499 13.4022H4.34478C4.36226 13.4029 4.37913 13.4088 4.39315 13.4193C4.40717 13.4297 4.41767 13.4442 4.42325 13.4608C4.42883 13.4773 4.42921 13.4952 4.42436 13.512C4.41951 13.5288 4.40966 13.5438 4.3961 13.5548L3.88978 13.928L4.07843 14.5287C4.08342 14.5456 4.08306 14.5637 4.07741 14.5805C4.07175 14.5972 4.06107 14.6118 4.04682 14.6223C4.03257 14.6328 4.01544 14.6386 3.99776 14.6389C3.98009 14.6393 3.96272 14.6342 3.94804 14.6244L3.43616 14.2596L2.92428 14.6244C2.90959 14.6342 2.89223 14.6393 2.87456 14.6389C2.85688 14.6386 2.83975 14.6328 2.8255 14.6223C2.81125 14.6118 2.80057 14.5972 2.79491 14.5805C2.78925 14.5637 2.78889 14.5456 2.79388 14.5287L2.98254 13.928L2.47621 13.5548C2.46266 13.5438 2.4528 13.5288 2.44795 13.512C2.4431 13.4952 2.44349 13.4773 2.44907 13.4608C2.45464 13.4442 2.46514 13.4297 2.47916 13.4193C2.49318 13.4088 2.51006 13.4029 2.52754 13.4022H3.15733L3.35709 12.8043C3.3635 12.7884 3.37452 12.7748 3.38874 12.7652C3.40295 12.7556 3.41971 12.7505 3.43685 12.7505C3.454 12.7505 3.47076 12.7556 3.48497 12.7652C3.49918 12.7748 3.5102 12.7884 3.51662 12.8043H3.51523Z" fill="#F5F5F5"/>
<path d="M3.51386 17.8868L3.71362 18.4847H4.34341C4.36158 18.4846 4.37932 18.4903 4.39408 18.5009C4.40883 18.5115 4.41985 18.5265 4.42555 18.5438C4.43125 18.561 4.43134 18.5796 4.4258 18.5969C4.42027 18.6143 4.40939 18.6294 4.39474 18.6401L3.88841 19.0133L4.07707 19.614C4.08206 19.6309 4.0817 19.649 4.07604 19.6658C4.07039 19.6825 4.0597 19.6971 4.04545 19.7076C4.0312 19.718 4.01407 19.7239 3.9964 19.7242C3.97872 19.7246 3.96136 19.7195 3.94667 19.7097L3.43479 19.3448L2.92292 19.7097C2.90839 19.7205 2.89079 19.7263 2.87269 19.7264C2.85459 19.7264 2.83696 19.7207 2.82237 19.71C2.80778 19.6993 2.79701 19.6842 2.79164 19.6669C2.78626 19.6496 2.78658 19.6311 2.79252 19.614L2.98118 19.0133L2.47485 18.6401C2.4602 18.6294 2.44932 18.6143 2.44379 18.5969C2.43825 18.5796 2.43834 18.561 2.44404 18.5438C2.44974 18.5265 2.46076 18.5115 2.47551 18.5009C2.49027 18.4903 2.508 18.4846 2.52618 18.4847H3.15597L3.35573 17.8868C3.36214 17.8709 3.37316 17.8573 3.38737 17.8477C3.40159 17.8381 3.41834 17.833 3.43549 17.833C3.45264 17.833 3.46939 17.8381 3.48361 17.8477C3.49782 17.8573 3.50884 17.8709 3.51525 17.8868H3.51386Z" fill="#F5F5F5"/>
<path d="M3.51489 22.5148L3.71465 23.1127H4.34444C4.36192 23.1133 4.3788 23.1192 4.39282 23.1297C4.40684 23.1401 4.41734 23.1546 4.42291 23.1712C4.42849 23.1878 4.42888 23.2057 4.42403 23.2225C4.41918 23.2393 4.40932 23.2542 4.39577 23.2653L3.88944 23.6384L4.0781 24.2391C4.08309 24.2561 4.08273 24.2742 4.07707 24.2909C4.07141 24.3077 4.06073 24.3223 4.04648 24.3327C4.03223 24.3432 4.0151 24.349 3.99742 24.3494C3.97975 24.3497 3.96239 24.3447 3.9477 24.3348L3.43582 23.97L2.92394 24.3348C2.90926 24.3447 2.8919 24.3497 2.87422 24.3494C2.85655 24.349 2.83942 24.3432 2.82516 24.3327C2.81091 24.3223 2.80023 24.3077 2.79457 24.2909C2.78892 24.2742 2.78856 24.2561 2.79355 24.2391L2.98221 23.6384L2.47588 23.2653C2.46151 23.2546 2.45089 23.2397 2.44554 23.2226C2.44018 23.2056 2.44036 23.1873 2.44607 23.1703C2.45177 23.1534 2.46269 23.1386 2.47727 23.1283C2.49184 23.1179 2.50932 23.1125 2.5272 23.1127H3.15699L3.35675 22.5148C3.36316 22.4989 3.37418 22.4852 3.3884 22.4756C3.40261 22.4661 3.41937 22.4609 3.43652 22.4609C3.45366 22.4609 3.47042 22.4661 3.48463 22.4756C3.49884 22.4852 3.50986 22.4989 3.51628 22.5148H3.51489Z" fill="#F5F5F5"/>
<path d="M5.94394 4.64027L6.1437 5.23817H6.77349C6.79097 5.23879 6.80785 5.24472 6.82187 5.25518C6.83589 5.26564 6.84638 5.28012 6.85196 5.2967C6.85754 5.31328 6.85793 5.33116 6.85308 5.34797C6.84823 5.36477 6.83837 5.37971 6.82481 5.39076L6.31849 5.76393L6.50714 6.36461C6.51213 6.38157 6.51177 6.39965 6.50612 6.41641C6.50046 6.43316 6.48978 6.44775 6.47553 6.45822C6.46128 6.46868 6.44415 6.47449 6.42647 6.47487C6.4088 6.47525 6.39144 6.47017 6.37675 6.46033L5.86487 6.09548L5.35299 6.46033C5.3383 6.47017 5.32094 6.47525 5.30327 6.47487C5.28559 6.47449 5.26847 6.46868 5.25421 6.45822C5.23996 6.44775 5.22928 6.43316 5.22362 6.41641C5.21797 6.39965 5.21761 6.38157 5.2226 6.36461L5.41125 5.76393L4.90493 5.39076C4.89137 5.37971 4.88151 5.36477 4.87666 5.34797C4.87181 5.33116 4.8722 5.31328 4.87778 5.2967C4.88336 5.28012 4.89385 5.26564 4.90787 5.25518C4.92189 5.24472 4.93877 5.23879 4.95625 5.23817H5.58604L5.7858 4.64027C5.79221 4.62436 5.80323 4.61074 5.81745 4.60114C5.83166 4.59155 5.84842 4.58643 5.86557 4.58643C5.88271 4.58643 5.89947 4.59155 5.91368 4.60114C5.92789 4.61074 5.93891 4.62436 5.94533 4.64027H5.94394Z" fill="#F5F5F5"/>
<path d="M5.94466 10.1784L6.14441 10.7763H6.7742C6.79202 10.7765 6.80931 10.7823 6.82368 10.7929C6.83805 10.8034 6.8488 10.8181 6.85444 10.835C6.86007 10.852 6.86032 10.8702 6.85514 10.8872C6.84996 10.9043 6.83961 10.9193 6.82553 10.9302L6.3192 11.3034L6.50786 11.9041C6.51285 11.921 6.51249 11.9391 6.50683 11.9559C6.50117 11.9726 6.49049 11.9872 6.47624 11.9977C6.46199 12.0082 6.44486 12.014 6.42719 12.0143C6.40951 12.0147 6.39215 12.0096 6.37746 11.9998L5.86558 11.6349L5.3537 11.9998C5.33902 12.0096 5.32166 12.0147 5.30398 12.0143C5.28631 12.014 5.26918 12.0082 5.25492 11.9977C5.24067 11.9872 5.22999 11.9726 5.22433 11.9559C5.21867 11.9391 5.21832 11.921 5.22331 11.9041L5.41197 11.3034L4.90564 10.9302C4.89156 10.9193 4.88121 10.9043 4.87603 10.8872C4.87085 10.8702 4.87109 10.852 4.87673 10.835C4.88236 10.8181 4.89311 10.8034 4.90748 10.7929C4.92186 10.7823 4.93915 10.7765 4.95697 10.7763H5.58675L5.78651 10.1784C5.79293 10.1624 5.80395 10.1488 5.81816 10.1392C5.83238 10.1296 5.84913 10.1245 5.86627 10.1245C5.88342 10.1245 5.90018 10.1296 5.91439 10.1392C5.92861 10.1488 5.93963 10.1624 5.94604 10.1784H5.94466Z" fill="#F5F5F5"/>
<path d="M5.94394 15.4347L6.1437 16.0326H6.77349C6.79097 16.0332 6.80785 16.0392 6.82187 16.0496C6.83589 16.0601 6.84638 16.0746 6.85196 16.0911C6.85754 16.1077 6.85793 16.1256 6.85308 16.1424C6.84823 16.1592 6.83837 16.1742 6.82481 16.1852L6.31848 16.5584L6.50714 17.159C6.51213 17.176 6.51177 17.1941 6.50612 17.2108C6.50046 17.2276 6.48978 17.2422 6.47553 17.2526C6.46127 17.2631 6.44415 17.2689 6.42647 17.2693C6.4088 17.2697 6.39143 17.2646 6.37674 17.2548L5.86487 16.8899L5.35299 17.2548C5.3383 17.2646 5.32094 17.2697 5.30327 17.2693C5.28559 17.2689 5.26846 17.2631 5.25421 17.2526C5.23996 17.2422 5.22927 17.2276 5.22362 17.2108C5.21796 17.1941 5.21761 17.176 5.2226 17.159L5.41125 16.5584L4.90493 16.1852C4.89137 16.1742 4.88151 16.1592 4.87666 16.1424C4.87181 16.1256 4.8722 16.1077 4.87778 16.0911C4.88336 16.0746 4.89385 16.0601 4.90787 16.0496C4.92189 16.0392 4.93877 16.0332 4.95625 16.0326H5.58604L5.7858 15.4347C5.79221 15.4188 5.80323 15.4052 5.81745 15.3956C5.83166 15.386 5.84841 15.3809 5.86556 15.3809C5.88271 15.3809 5.89947 15.386 5.91368 15.3956C5.92789 15.4052 5.93891 15.4188 5.94533 15.4347H5.94394Z" fill="#F5F5F5"/>
<path d="M5.94394 20.1534L6.1437 20.7513H6.77349C6.79097 20.752 6.80785 20.7579 6.82187 20.7684C6.83589 20.7788 6.84638 20.7933 6.85196 20.8099C6.85754 20.8265 6.85793 20.8444 6.85308 20.8612C6.84823 20.878 6.83837 20.8929 6.82481 20.9039L6.31848 21.2771L6.50714 21.8778C6.51309 21.8949 6.5134 21.9134 6.50803 21.9307C6.50266 21.948 6.49188 21.9631 6.47729 21.9738C6.4627 21.9845 6.44507 21.9903 6.42697 21.9902C6.40887 21.9901 6.39127 21.9843 6.37674 21.9735L5.86487 21.6087L5.35299 21.9735C5.33847 21.9843 5.32086 21.9901 5.30277 21.9902C5.28467 21.9903 5.26703 21.9845 5.25244 21.9738C5.23785 21.9631 5.22708 21.948 5.22171 21.9307C5.21634 21.9134 5.21665 21.8949 5.2226 21.8778L5.41125 21.2771L4.90493 20.9039C4.89137 20.8929 4.88151 20.878 4.87666 20.8612C4.87181 20.8444 4.8722 20.8265 4.87778 20.8099C4.88336 20.7933 4.89385 20.7788 4.90787 20.7684C4.92189 20.7579 4.93877 20.752 4.95625 20.7513H5.58604L5.7858 20.1534C5.79221 20.1375 5.80323 20.1239 5.81745 20.1143C5.83166 20.1047 5.84841 20.0996 5.86556 20.0996C5.88271 20.0996 5.89947 20.1047 5.91368 20.1143C5.92789 20.1239 5.93891 20.1375 5.94533 20.1534H5.94394Z" fill="#F5F5F5"/>
<path d="M8.37281 2.28138L8.57256 2.87928H9.20513C9.22261 2.8799 9.23948 2.88583 9.2535 2.89629C9.26752 2.90675 9.27803 2.92123 9.2836 2.93781C9.28918 2.95439 9.28956 2.97228 9.28471 2.98908C9.27986 3.00589 9.27001 3.02082 9.25646 3.03188L8.75013 3.40504L8.93878 4.00572C8.94377 4.02268 8.94341 4.04077 8.93775 4.05752C8.9321 4.07427 8.92142 4.08887 8.90717 4.09933C8.89292 4.10979 8.87579 4.11561 8.85811 4.11599C8.84044 4.11636 8.82308 4.11129 8.80839 4.10144L8.29651 3.7366L7.78463 4.10144C7.76994 4.11129 7.75258 4.11636 7.73491 4.11599C7.71723 4.11561 7.7001 4.10979 7.68585 4.09933C7.6716 4.08887 7.66092 4.07427 7.65527 4.05752C7.64961 4.04077 7.64925 4.02268 7.65424 4.00572L7.84289 3.40504L7.33656 3.03188C7.32301 3.02082 7.31316 3.00589 7.30831 2.98908C7.30346 2.97228 7.30384 2.95439 7.30942 2.93781C7.31499 2.92123 7.3255 2.90675 7.33952 2.89629C7.35354 2.88583 7.37041 2.8799 7.38789 2.87928H8.01769L8.21744 2.28138C8.22385 2.26548 8.23487 2.25185 8.24909 2.24226C8.2633 2.23266 8.28006 2.22754 8.29721 2.22754C8.31436 2.22754 8.33111 2.23266 8.34532 2.24226C8.35953 2.25185 8.37055 2.26548 8.37697 2.28138H8.37281Z" fill="#F5F5F5"/>
<path d="M8.37157 7.27161L8.57132 7.86951H9.20389C9.22171 7.8698 9.23901 7.8756 9.25338 7.88613C9.26775 7.89666 9.2785 7.9114 9.28413 7.92831C9.28977 7.94521 9.29001 7.96346 9.28483 7.98051C9.27965 7.99756 9.26931 8.01258 9.25522 8.0235L8.74889 8.39666L8.93755 8.99734C8.94254 9.0143 8.94218 9.03238 8.93652 9.04913C8.93086 9.06588 8.92018 9.08049 8.90593 9.09095C8.89168 9.10141 8.87455 9.10723 8.85688 9.10761C8.8392 9.10799 8.82184 9.1029 8.80716 9.09306L8.29527 8.72821L7.78339 9.09306C7.76871 9.1029 7.75135 9.10799 7.73367 9.10761C7.716 9.10723 7.69887 9.10141 7.68462 9.09095C7.67036 9.08049 7.65969 9.06588 7.65403 9.04913C7.64837 9.03238 7.64801 9.0143 7.653 8.99734L7.84165 8.39666L7.33533 8.0235C7.32124 8.01258 7.31089 7.99756 7.30572 7.98051C7.30054 7.96346 7.30078 7.94521 7.30641 7.92831C7.31205 7.9114 7.32281 7.89666 7.33718 7.88613C7.35155 7.8756 7.36884 7.8698 7.38666 7.86951H8.01645L8.21621 7.27161C8.22262 7.25571 8.23364 7.24209 8.24785 7.2325C8.26206 7.2229 8.27883 7.21777 8.29597 7.21777C8.31312 7.21777 8.32987 7.2229 8.34409 7.2325C8.3583 7.24209 8.36932 7.25571 8.37573 7.27161H8.37157Z" fill="#F5F5F5"/>
<path d="M8.37281 12.8043L8.57256 13.4022H9.20513C9.22301 13.402 9.24049 13.4075 9.25507 13.4179C9.26965 13.4282 9.28057 13.4429 9.28627 13.4599C9.29197 13.4768 9.29216 13.4951 9.2868 13.5122C9.28144 13.5293 9.27082 13.5442 9.25646 13.5548L8.75013 13.928L8.93878 14.5287C8.94377 14.5456 8.94341 14.5637 8.93775 14.5805C8.9321 14.5972 8.92142 14.6118 8.90717 14.6223C8.89292 14.6328 8.87579 14.6386 8.85811 14.6389C8.84044 14.6393 8.82308 14.6342 8.80839 14.6244L8.29651 14.2596L7.78463 14.6244C7.7701 14.6352 7.75251 14.641 7.73441 14.6411C7.71631 14.6412 7.69867 14.6354 7.68408 14.6247C7.6695 14.614 7.65872 14.5989 7.65335 14.5816C7.64798 14.5643 7.64829 14.5458 7.65424 14.5287L7.84289 13.928L7.33656 13.5548C7.32301 13.5438 7.31316 13.5288 7.30831 13.512C7.30346 13.4952 7.30384 13.4773 7.30942 13.4608C7.31499 13.4442 7.3255 13.4297 7.33952 13.4193C7.35354 13.4088 7.37041 13.4029 7.38789 13.4022H8.01769L8.21744 12.8043C8.22385 12.7884 8.23487 12.7748 8.24909 12.7652C8.2633 12.7556 8.28006 12.7505 8.29721 12.7505C8.31436 12.7505 8.33111 12.7556 8.34532 12.7652C8.35953 12.7748 8.37055 12.7884 8.37697 12.8043H8.37281Z" fill="#F5F5F5"/>
<path d="M8.37144 17.8868L8.57119 18.4847H9.20376C9.22193 18.4846 9.23967 18.4903 9.25442 18.5009C9.26918 18.5115 9.2802 18.5265 9.2859 18.5438C9.2916 18.561 9.29169 18.5796 9.28615 18.5969C9.28062 18.6143 9.26975 18.6294 9.25509 18.6401L8.74876 19.0133L8.93742 19.614C8.94241 19.6309 8.94205 19.649 8.93639 19.6658C8.93073 19.6825 8.92006 19.6971 8.9058 19.7076C8.89155 19.718 8.87442 19.7239 8.85675 19.7242C8.83907 19.7246 8.82171 19.7195 8.80703 19.7097L8.29514 19.3448L7.78326 19.7097C7.76858 19.7195 7.75122 19.7246 7.73354 19.7242C7.71587 19.7239 7.69874 19.718 7.68449 19.7076C7.67023 19.6971 7.65956 19.6825 7.6539 19.6658C7.64824 19.649 7.64788 19.6309 7.65287 19.614L7.84152 19.0133L7.3352 18.6401C7.32054 18.6294 7.30967 18.6143 7.30414 18.5969C7.2986 18.5796 7.29869 18.561 7.30439 18.5438C7.31009 18.5265 7.32111 18.5115 7.33587 18.5009C7.35062 18.4903 7.36836 18.4846 7.38653 18.4847H8.01632L8.21608 17.8868C8.22249 17.8709 8.23351 17.8573 8.24772 17.8477C8.26193 17.8381 8.2787 17.833 8.29584 17.833C8.31299 17.833 8.32974 17.8381 8.34396 17.8477C8.35817 17.8573 8.36919 17.8709 8.3756 17.8868H8.37144Z" fill="#F5F5F5"/>
<path d="M8.37345 22.5148L8.5732 23.1127H9.20577C9.22325 23.1133 9.24013 23.1192 9.25415 23.1297C9.26817 23.1401 9.27867 23.1546 9.28425 23.1712C9.28982 23.1878 9.29021 23.2057 9.28536 23.2225C9.28051 23.2393 9.27065 23.2542 9.2571 23.2653L8.75077 23.6384L8.93942 24.2391C8.94537 24.2562 8.94569 24.2747 8.94031 24.292C8.93494 24.3093 8.92417 24.3244 8.90958 24.3351C8.89499 24.3458 8.87735 24.3516 8.85925 24.3515C8.84116 24.3515 8.82356 24.3456 8.80904 24.3348L8.29715 23.97L7.78527 24.3348C7.77075 24.3456 7.75315 24.3515 7.73505 24.3515C7.71696 24.3516 7.69932 24.3458 7.68473 24.3351C7.67014 24.3244 7.65937 24.3093 7.65399 24.292C7.64862 24.2747 7.64894 24.2562 7.65488 24.2391L7.84353 23.6384L7.33721 23.2653C7.32284 23.2546 7.31222 23.2397 7.30686 23.2226C7.30151 23.2056 7.30169 23.1873 7.30739 23.1703C7.31309 23.1534 7.32402 23.1386 7.33859 23.1283C7.35317 23.1179 7.37066 23.1125 7.38854 23.1127H8.01833L8.21808 22.5148C8.2245 22.4989 8.23552 22.4852 8.24973 22.4756C8.26394 22.4661 8.2807 22.4609 8.29785 22.4609C8.315 22.4609 8.33175 22.4661 8.34596 22.4756C8.36018 22.4852 8.3712 22.4989 8.37761 22.5148H8.37345Z" fill="#F5F5F5"/>
<path d="M10.8022 4.63978L11.002 5.23768H11.6318C11.6491 5.23856 11.6658 5.24468 11.6796 5.25524C11.6934 5.2658 11.7037 5.2803 11.7091 5.29683C11.7145 5.31335 11.7148 5.33113 11.7099 5.34781C11.705 5.36449 11.6952 5.3793 11.6817 5.39028L11.1754 5.76344L11.364 6.36412C11.37 6.38121 11.3703 6.39976 11.3649 6.41704C11.3595 6.43432 11.3488 6.44943 11.3342 6.46014C11.3196 6.47084 11.302 6.47659 11.2839 6.47654C11.2658 6.47649 11.2482 6.47063 11.2336 6.45984L10.7218 6.09499L10.2099 6.45984C10.1952 6.46968 10.1778 6.47476 10.1602 6.47438C10.1425 6.474 10.1254 6.46819 10.1111 6.45773C10.0968 6.44727 10.0862 6.43267 10.0805 6.41592C10.0748 6.39917 10.0745 6.38108 10.0795 6.36412L10.2695 5.76344L9.7632 5.39028C9.74965 5.37922 9.73979 5.36429 9.73494 5.34748C9.73009 5.33067 9.73048 5.31279 9.73605 5.29621C9.74163 5.27963 9.75213 5.26515 9.76615 5.25469C9.78017 5.24423 9.79705 5.2383 9.81453 5.23768H10.4443L10.6441 4.63978C10.6505 4.62387 10.6615 4.61025 10.6757 4.60065C10.6899 4.59106 10.7067 4.58594 10.7238 4.58594C10.741 4.58594 10.7577 4.59106 10.772 4.60065C10.7862 4.61025 10.7972 4.62387 10.8036 4.63978H10.8022Z" fill="#F5F5F5"/>
<path d="M10.8023 10.1784L11.0021 10.7763H11.6319C11.6496 10.7768 11.6667 10.7828 11.6808 10.7935C11.695 10.8041 11.7055 10.8188 11.711 10.8357C11.7164 10.8525 11.7166 10.8707 11.7114 10.8876C11.7061 10.9045 11.6958 10.9194 11.6818 10.9302L11.1755 11.3034L11.3641 11.9041C11.3691 11.921 11.3688 11.9391 11.3631 11.9559C11.3575 11.9726 11.3468 11.9872 11.3325 11.9977C11.3183 12.0082 11.3011 12.014 11.2835 12.0143C11.2658 12.0147 11.2484 12.0096 11.2337 11.9998L10.7219 11.6349L10.21 11.9998C10.1953 12.0096 10.1779 12.0147 10.1603 12.0143C10.1426 12.014 10.1255 12.0082 10.1112 11.9977C10.097 11.9872 10.0863 11.9726 10.0806 11.9559C10.075 11.9391 10.0746 11.921 10.0796 11.9041L10.2696 11.3034L9.76331 10.9302C9.74922 10.9193 9.73887 10.9043 9.73369 10.8872C9.72852 10.8702 9.72876 10.852 9.73439 10.835C9.74003 10.8181 9.75077 10.8034 9.76515 10.7929C9.77952 10.7823 9.79682 10.7765 9.81464 10.7763H10.4444L10.6442 10.1784C10.6506 10.1624 10.6616 10.1488 10.6758 10.1392C10.69 10.1296 10.7068 10.1245 10.7239 10.1245C10.7411 10.1245 10.7579 10.1296 10.7721 10.1392C10.7863 10.1488 10.7973 10.1624 10.8037 10.1784H10.8023Z" fill="#F5F5F5"/>
<path d="M10.8018 15.4347L11.0015 16.0326H11.6313C11.6487 16.0335 11.6654 16.0396 11.6792 16.0502C11.693 16.0607 11.7033 16.0752 11.7087 16.0918C11.7141 16.1083 11.7144 16.126 11.7095 16.1427C11.7046 16.1594 11.6947 16.1742 11.6813 16.1852L11.1749 16.5584L11.3636 17.159C11.3686 17.176 11.3682 17.1941 11.3626 17.2108C11.3569 17.2276 11.3462 17.2422 11.332 17.2527C11.3177 17.2631 11.3006 17.2689 11.2829 17.2693C11.2652 17.2697 11.2479 17.2646 11.2332 17.2548L10.7213 16.8899L10.2094 17.2548C10.1949 17.2656 10.1773 17.2714 10.1592 17.2715C10.1411 17.2715 10.1235 17.2658 10.1089 17.2551C10.0943 17.2444 10.0835 17.2292 10.0782 17.212C10.0728 17.1947 10.0731 17.1761 10.079 17.159L10.2677 16.5584L9.76137 16.1852C9.74782 16.1742 9.73796 16.1592 9.73311 16.1424C9.72826 16.1256 9.72865 16.1077 9.73422 16.0911C9.7398 16.0746 9.7503 16.0601 9.76432 16.0496C9.77834 16.0392 9.79522 16.0332 9.8127 16.0326H10.4425L10.6422 15.4347C10.6487 15.4188 10.6597 15.4052 10.6739 15.3956C10.6881 15.386 10.7049 15.3809 10.722 15.3809C10.7392 15.3809 10.7559 15.386 10.7701 15.3956C10.7843 15.4052 10.7954 15.4188 10.8018 15.4347V15.4347Z" fill="#F5F5F5"/>
<path d="M10.8023 20.154L11.0021 20.7519H11.6319C11.6492 20.7528 11.6659 20.7589 11.6798 20.7695C11.6936 20.7801 11.7039 20.7945 11.7093 20.8111C11.7147 20.8276 11.7149 20.8454 11.71 20.8621C11.7051 20.8787 11.6953 20.8935 11.6818 20.9045L11.1755 21.2777L11.3642 21.8784C11.3691 21.8953 11.3688 21.9134 11.3631 21.9302C11.3575 21.9469 11.3468 21.9615 11.3325 21.972C11.3183 21.9824 11.3012 21.9883 11.2835 21.9886C11.2658 21.989 11.2484 21.9839 11.2338 21.9741L10.7219 21.6092L10.21 21.9741C10.1953 21.9839 10.178 21.989 10.1603 21.9886C10.1426 21.9883 10.1255 21.9824 10.1112 21.972C10.097 21.9615 10.0863 21.9469 10.0806 21.9302C10.075 21.9134 10.0746 21.8953 10.0796 21.8784L10.2696 21.2777L9.76332 20.9045C9.74977 20.8935 9.73991 20.8786 9.73506 20.8617C9.73021 20.8449 9.7306 20.8271 9.73618 20.8105C9.74175 20.7939 9.75225 20.7794 9.76627 20.7689C9.7803 20.7585 9.79717 20.7525 9.81465 20.7519H10.4444L10.6442 20.154C10.65 20.1375 10.6608 20.1233 10.6751 20.1132C10.6894 20.1031 10.7065 20.0977 10.724 20.0977C10.7414 20.0977 10.7585 20.1031 10.7728 20.1132C10.7871 20.1233 10.7979 20.1375 10.8037 20.154H10.8023Z" fill="#F5F5F5"/>
<path d="M13.2295 2.28138L13.4293 2.87928H14.0591C14.0768 2.87938 14.0941 2.88506 14.1085 2.89552C14.1228 2.90598 14.1335 2.9207 14.139 2.93758C14.1446 2.95446 14.1446 2.97265 14.1392 2.98957C14.1338 3.0065 14.1233 3.0213 14.109 3.03188L13.6027 3.40504L13.7913 4.00572C13.7973 4.02281 13.7976 4.04136 13.7922 4.05864C13.7868 4.07592 13.7761 4.09103 13.7615 4.10174C13.7469 4.11245 13.7293 4.1182 13.7112 4.11814C13.6931 4.11809 13.6755 4.11224 13.6609 4.10144L13.1491 3.7366L12.6372 4.10144C12.6225 4.11129 12.6051 4.11636 12.5875 4.11599C12.5698 4.11561 12.5526 4.10979 12.5384 4.09933C12.5241 4.08887 12.5135 4.07427 12.5078 4.05752C12.5022 4.04077 12.5018 4.02268 12.5068 4.00572L12.6954 3.40504L12.1891 3.03188C12.1756 3.02082 12.1657 3.00589 12.1608 2.98908C12.156 2.97228 12.1564 2.95439 12.162 2.93781C12.1675 2.92123 12.178 2.90675 12.1921 2.89629C12.2061 2.88583 12.2229 2.8799 12.2404 2.87928H12.8702L13.07 2.28138C13.0764 2.26548 13.0874 2.25185 13.1016 2.24226C13.1158 2.23266 13.1326 2.22754 13.1497 2.22754C13.1669 2.22754 13.1836 2.23266 13.1979 2.24226C13.2121 2.25185 13.2231 2.26548 13.2295 2.28138V2.28138Z" fill="#F5F5F5"/>
<path d="M13.2259 7.27202L13.4256 7.86992H14.0555C14.0732 7.87002 14.0905 7.8757 14.1048 7.88616C14.1192 7.89662 14.1299 7.91134 14.1354 7.92822C14.1409 7.9451 14.141 7.96329 14.1356 7.98022C14.1302 7.99714 14.1197 8.01194 14.1054 8.02252L13.599 8.39569L13.7877 8.99636C13.7927 9.01332 13.7924 9.03141 13.7867 9.04816C13.781 9.06491 13.7704 9.07951 13.7561 9.08997C13.7419 9.10044 13.7247 9.10626 13.707 9.10663C13.6894 9.10701 13.672 9.10192 13.6573 9.09208L13.1454 8.72723L12.6336 9.09208C12.6189 9.10192 12.6015 9.10701 12.5838 9.10663C12.5662 9.10626 12.549 9.10044 12.5348 9.08997C12.5205 9.07951 12.5098 9.06491 12.5042 9.04816C12.4985 9.03141 12.4982 9.01332 12.5032 8.99636L12.6932 8.39569L12.1869 8.02252C12.1728 8.01161 12.1625 7.99658 12.1573 7.97953C12.1521 7.96248 12.1523 7.94424 12.158 7.92733C12.1636 7.91043 12.1744 7.89569 12.1887 7.88515C12.2031 7.87462 12.2204 7.86882 12.2382 7.86854H12.868L13.0678 7.27064C13.0742 7.25473 13.0852 7.24111 13.0994 7.23152C13.1136 7.22193 13.1304 7.2168 13.1475 7.2168C13.1647 7.2168 13.1814 7.22193 13.1956 7.23152C13.2099 7.24111 13.2209 7.25473 13.2273 7.27064L13.2259 7.27202Z" fill="#F5F5F5"/>
<path d="M13.2295 12.8043L13.4293 13.4022H14.0591C14.0768 13.4023 14.0941 13.408 14.1085 13.4185C14.1228 13.4289 14.1335 13.4437 14.139 13.4605C14.1446 13.4774 14.1446 13.4956 14.1392 13.5125C14.1338 13.5295 14.1233 13.5443 14.109 13.5548L13.6027 13.928L13.7913 14.5287C13.7973 14.5458 13.7976 14.5643 13.7922 14.5816C13.7868 14.5989 13.7761 14.614 13.7615 14.6247C13.7469 14.6354 13.7293 14.6412 13.7112 14.6411C13.6931 14.641 13.6755 14.6352 13.6609 14.6244L13.1491 14.2596L12.6372 14.6244C12.6227 14.6352 12.6051 14.641 12.587 14.6411C12.5689 14.6412 12.5512 14.6354 12.5366 14.6247C12.5221 14.614 12.5113 14.5989 12.5059 14.5816C12.5005 14.5643 12.5008 14.5458 12.5068 14.5287L12.6954 13.928L12.1891 13.5548C12.1756 13.5438 12.1657 13.5288 12.1608 13.512C12.156 13.4952 12.1564 13.4773 12.162 13.4608C12.1675 13.4442 12.178 13.4297 12.1921 13.4193C12.2061 13.4088 12.2229 13.4029 12.2404 13.4022H12.8702L13.07 12.8043C13.0764 12.7884 13.0874 12.7748 13.1016 12.7652C13.1158 12.7556 13.1326 12.7505 13.1497 12.7505C13.1669 12.7505 13.1836 12.7556 13.1979 12.7652C13.2121 12.7748 13.2231 12.7884 13.2295 12.8043V12.8043Z" fill="#F5F5F5"/>
<path d="M13.2287 17.8868L13.4285 18.4847H14.0583C14.0763 18.4849 14.0939 18.4908 14.1084 18.5015C14.1229 18.5122 14.1337 18.5272 14.1392 18.5444C14.1448 18.5616 14.1447 18.5801 14.1392 18.5973C14.1336 18.6145 14.1228 18.6294 14.1082 18.6401L13.6019 19.0133L13.7905 19.614C13.7965 19.6311 13.7968 19.6496 13.7914 19.6669C13.786 19.6842 13.7753 19.6993 13.7607 19.71C13.7461 19.7207 13.7285 19.7264 13.7104 19.7264C13.6923 19.7263 13.6747 19.7205 13.6601 19.7097L13.1483 19.3448L12.6364 19.7097C12.6217 19.7195 12.6043 19.7246 12.5866 19.7242C12.569 19.7239 12.5519 19.718 12.5376 19.7076C12.5234 19.6971 12.5127 19.6825 12.507 19.6658C12.5013 19.649 12.501 19.6309 12.506 19.614L12.696 19.0133L12.1897 18.6401C12.175 18.6294 12.1642 18.6143 12.1586 18.5969C12.1531 18.5796 12.1532 18.561 12.1589 18.5438C12.1646 18.5265 12.1756 18.5115 12.1904 18.5009C12.2051 18.4903 12.2229 18.4846 12.241 18.4847H12.8708L13.0706 17.8868C13.077 17.8709 13.088 17.8573 13.1022 17.8477C13.1164 17.8381 13.1332 17.833 13.1503 17.833C13.1675 17.833 13.1842 17.8381 13.1985 17.8477C13.2127 17.8573 13.2237 17.8709 13.2301 17.8868H13.2287Z" fill="#F5F5F5"/>
<path d="M13.2297 22.5148L13.4295 23.1127H14.0593C14.0766 23.1135 14.0933 23.1197 14.1072 23.1302C14.121 23.1408 14.1313 23.1553 14.1367 23.1718C14.1421 23.1883 14.1423 23.2061 14.1374 23.2228C14.1325 23.2395 14.1227 23.2543 14.1092 23.2653L13.6029 23.6384L13.7916 24.2391C13.7975 24.2562 13.7978 24.2747 13.7924 24.292C13.787 24.3093 13.7763 24.3244 13.7617 24.3351C13.7471 24.3458 13.7295 24.3516 13.7114 24.3515C13.6933 24.3515 13.6757 24.3456 13.6611 24.3348L13.1493 23.97L12.6374 24.3348C12.6229 24.3456 12.6053 24.3515 12.5872 24.3515C12.5691 24.3516 12.5514 24.3458 12.5369 24.3351C12.5223 24.3244 12.5115 24.3093 12.5061 24.292C12.5007 24.2747 12.501 24.2562 12.507 24.2391L12.697 23.6384L12.1907 23.2653C12.1763 23.2546 12.1657 23.2397 12.1604 23.2226C12.155 23.2056 12.1552 23.1873 12.1609 23.1703C12.1666 23.1534 12.1775 23.1386 12.1921 23.1283C12.2067 23.1179 12.2242 23.1125 12.242 23.1127H12.8718L13.0716 22.5148C13.078 22.4989 13.089 22.4852 13.1032 22.4756C13.1175 22.4661 13.1342 22.4609 13.1514 22.4609C13.1685 22.4609 13.1853 22.4661 13.1995 22.4756C13.2137 22.4852 13.2247 22.4989 13.2311 22.5148H13.2297Z" fill="#F5F5F5"/>
<path d="M15.656 4.63978L15.8558 5.23768H16.4856C16.503 5.2383 16.5199 5.24423 16.5339 5.25469C16.5479 5.26515 16.5585 5.27963 16.564 5.29621C16.5696 5.31279 16.57 5.33067 16.5651 5.34748C16.5603 5.36429 16.5504 5.37922 16.5369 5.39028L16.0306 5.76344L16.2206 6.36412C16.2256 6.38108 16.2252 6.39917 16.2196 6.41592C16.2139 6.43267 16.2032 6.44727 16.189 6.45773C16.1747 6.46819 16.1576 6.474 16.1399 6.47438C16.1222 6.47476 16.1049 6.46968 16.0902 6.45984L15.5783 6.09499L15.0664 6.45984C15.0518 6.46968 15.0344 6.47476 15.0167 6.47438C14.999 6.474 14.9819 6.46819 14.9677 6.45773C14.9534 6.44727 14.9427 6.43267 14.9371 6.41592C14.9314 6.39917 14.9311 6.38108 14.936 6.36412L15.1261 5.76344L14.6198 5.39028C14.6062 5.37922 14.5964 5.36429 14.5915 5.34748C14.5867 5.33067 14.587 5.31279 14.5926 5.29621C14.5982 5.27963 14.6087 5.26515 14.6227 5.25469C14.6367 5.24423 14.6536 5.2383 14.6711 5.23768H15.3009L15.5006 4.63978C15.5071 4.62387 15.5181 4.61025 15.5323 4.60065C15.5465 4.59106 15.5632 4.58594 15.5804 4.58594C15.5975 4.58594 15.6143 4.59106 15.6285 4.60065C15.6427 4.61025 15.6538 4.62387 15.6602 4.63978H15.656Z" fill="#F5F5F5"/>
<path d="M15.6561 10.1784L15.8558 10.7763H16.4856C16.5034 10.7765 16.5207 10.7823 16.5351 10.7929C16.5495 10.8034 16.5602 10.8181 16.5659 10.835C16.5715 10.852 16.5717 10.8702 16.5666 10.8872C16.5614 10.9043 16.551 10.9193 16.5369 10.9302L16.0306 11.3034L16.2207 11.9041C16.2257 11.921 16.2253 11.9391 16.2196 11.9559C16.214 11.9726 16.2033 11.9872 16.189 11.9977C16.1748 12.0082 16.1577 12.014 16.14 12.0143C16.1223 12.0147 16.1049 12.0096 16.0903 11.9998L15.5784 11.6349L15.0665 11.9998C15.0518 12.0096 15.0345 12.0147 15.0168 12.0143C14.9991 12.014 14.982 12.0082 14.9677 11.9977C14.9535 11.9872 14.9428 11.9726 14.9371 11.9559C14.9315 11.9391 14.9311 11.921 14.9361 11.9041L15.1248 11.3034L14.6184 10.9302C14.6036 10.9199 14.5924 10.905 14.5867 10.8878C14.5809 10.8706 14.5808 10.852 14.5864 10.8347C14.592 10.8175 14.603 10.8025 14.6177 10.792C14.6325 10.7814 14.6503 10.7759 14.6684 10.7763H15.2982L15.4979 10.1784C15.5044 10.1624 15.5154 10.1488 15.5296 10.1392C15.5438 10.1296 15.5605 10.1245 15.5777 10.1245C15.5948 10.1245 15.6116 10.1296 15.6258 10.1392C15.64 10.1488 15.651 10.1624 15.6575 10.1784H15.6561Z" fill="#F5F5F5"/>
<path d="M15.6564 15.4347L15.8562 16.0326H16.486C16.5035 16.0332 16.5203 16.0392 16.5343 16.0496C16.5484 16.0601 16.5589 16.0746 16.5644 16.0911C16.57 16.1077 16.5704 16.1256 16.5656 16.1424C16.5607 16.1592 16.5508 16.1742 16.5373 16.1852L16.031 16.5584L16.221 17.159C16.226 17.176 16.2256 17.1941 16.22 17.2108C16.2143 17.2276 16.2037 17.2422 16.1894 17.2526C16.1751 17.2631 16.158 17.2689 16.1403 17.2693C16.1227 17.2697 16.1053 17.2646 16.0906 17.2548L15.5787 16.8899L15.0668 17.2548C15.0522 17.2646 15.0348 17.2697 15.0171 17.2693C14.9995 17.2689 14.9823 17.2631 14.9681 17.2526C14.9538 17.2422 14.9431 17.2276 14.9375 17.2108C14.9318 17.1941 14.9315 17.176 14.9365 17.159L15.1251 16.5584L14.6188 16.1852C14.6052 16.1742 14.5954 16.1592 14.5905 16.1424C14.5857 16.1256 14.5861 16.1077 14.5916 16.0911C14.5972 16.0746 14.6077 16.0601 14.6217 16.0496C14.6357 16.0392 14.6526 16.0332 14.6701 16.0326H15.2999L15.4997 15.4347C15.5061 15.4188 15.5171 15.4052 15.5313 15.3956C15.5455 15.386 15.5623 15.3809 15.5794 15.3809C15.5966 15.3809 15.6133 15.386 15.6275 15.3956C15.6418 15.4052 15.6528 15.4188 15.6592 15.4347H15.6564Z" fill="#F5F5F5"/>
<path d="M15.656 20.154L15.8558 20.7519H16.4856C16.503 20.7525 16.5199 20.7585 16.5339 20.7689C16.5479 20.7794 16.5585 20.7939 16.564 20.8105C16.5696 20.8271 16.57 20.8449 16.5651 20.8617C16.5603 20.8786 16.5504 20.8935 16.5369 20.9045L16.0306 21.2777L16.2206 21.8784C16.2256 21.8953 16.2252 21.9134 16.2196 21.9302C16.2139 21.9469 16.2032 21.9615 16.189 21.972C16.1747 21.9824 16.1576 21.9883 16.1399 21.9886C16.1222 21.989 16.1049 21.9839 16.0902 21.9741L15.5783 21.6092L15.0664 21.9741C15.0518 21.9839 15.0344 21.989 15.0167 21.9886C14.999 21.9883 14.9819 21.9824 14.9677 21.972C14.9534 21.9615 14.9427 21.9469 14.9371 21.9302C14.9314 21.9134 14.9311 21.8953 14.936 21.8784L15.1261 21.2777L14.6198 20.9045C14.6062 20.8935 14.5964 20.8786 14.5915 20.8617C14.5867 20.8449 14.587 20.8271 14.5926 20.8105C14.5982 20.7939 14.6087 20.7794 14.6227 20.7689C14.6367 20.7585 14.6536 20.7525 14.6711 20.7519H15.3009L15.5006 20.154C15.5065 20.1375 15.5173 20.1233 15.5316 20.1132C15.5458 20.1031 15.5629 20.0977 15.5804 20.0977C15.5979 20.0977 15.615 20.1031 15.6292 20.1132C15.6435 20.1233 15.6543 20.1375 15.6602 20.154H15.656Z" fill="#F5F5F5"/>
<path d="M18.0851 2.28138L18.2849 2.87928H18.9147C18.9326 2.87908 18.95 2.88455 18.9646 2.89491C18.9792 2.90526 18.9901 2.91997 18.9958 2.93692C19.0015 2.95386 19.0017 2.97218 18.9963 2.98924C18.991 3.0063 18.9804 3.02123 18.966 3.03188L18.4597 3.40504L18.6483 4.00572C18.6533 4.02268 18.653 4.04077 18.6473 4.05752C18.6417 4.07427 18.631 4.08887 18.6167 4.09933C18.6025 4.10979 18.5853 4.11561 18.5677 4.11599C18.55 4.11636 18.5326 4.11129 18.5179 4.10144L18.0061 3.7366L17.4942 4.10144C17.4795 4.11129 17.4621 4.11636 17.4445 4.11599C17.4268 4.11561 17.4097 4.10979 17.3954 4.09933C17.3812 4.08887 17.3705 4.07427 17.3648 4.05752C17.3591 4.04077 17.3588 4.02268 17.3638 4.00572L17.5538 3.40504L17.0475 3.03188C17.034 3.02082 17.0241 3.00589 17.0192 2.98908C17.0144 2.97228 17.0148 2.95439 17.0203 2.93781C17.0259 2.92123 17.0364 2.90675 17.0504 2.89629C17.0645 2.88583 17.0814 2.8799 17.0988 2.87928H17.7286L17.9284 2.28138C17.9348 2.26548 17.9458 2.25185 17.96 2.24226C17.9742 2.23266 17.991 2.22754 18.0081 2.22754C18.0253 2.22754 18.0421 2.23266 18.0563 2.24226C18.0705 2.25185 18.0815 2.26548 18.0879 2.28138H18.0851Z" fill="#F5F5F5"/>
<path d="M18.0851 7.27161L18.2849 7.86951H18.9147C18.9325 7.8698 18.9498 7.8756 18.9641 7.88613C18.9785 7.89666 18.9893 7.9114 18.9949 7.92831C19.0005 7.94521 19.0008 7.96346 18.9956 7.98051C18.9904 7.99756 18.9801 8.01258 18.966 8.0235L18.4597 8.39666L18.6483 8.99734C18.6533 9.0143 18.6529 9.03238 18.6473 9.04913C18.6416 9.06588 18.631 9.08049 18.6167 9.09095C18.6025 9.10141 18.5853 9.10723 18.5677 9.10761C18.55 9.10799 18.5326 9.1029 18.5179 9.09306L18.0061 8.72821L17.4942 9.09306C17.4795 9.1029 17.4621 9.10799 17.4445 9.10761C17.4268 9.10723 17.4096 9.10141 17.3954 9.09095C17.3811 9.08049 17.3705 9.06588 17.3648 9.04913C17.3591 9.03238 17.3588 9.0143 17.3638 8.99734L17.5538 8.39666L17.0475 8.0235C17.0334 8.01258 17.0231 7.99756 17.0179 7.98051C17.0127 7.96346 17.0129 7.94521 17.0186 7.92831C17.0242 7.9114 17.035 7.89666 17.0493 7.88613C17.0637 7.8756 17.081 7.8698 17.0988 7.86951H17.7286L17.9284 7.27161C17.9348 7.25571 17.9458 7.24209 17.96 7.2325C17.9742 7.2229 17.991 7.21777 18.0081 7.21777C18.0253 7.21777 18.042 7.2229 18.0562 7.2325C18.0705 7.24209 18.0815 7.25571 18.0879 7.27161H18.0851Z" fill="#F5F5F5"/>
<path d="M18.085 12.8039L18.2848 13.4018H18.9145C18.9324 13.4016 18.9499 13.407 18.9645 13.4174C18.9791 13.4277 18.99 13.4424 18.9957 13.4594C19.0014 13.4763 19.0016 13.4947 18.9962 13.5117C18.9909 13.5288 18.9802 13.5437 18.9659 13.5543L18.4595 13.9275L18.6482 14.5282C18.6542 14.5453 18.6545 14.5638 18.6491 14.5811C18.6437 14.5984 18.6329 14.6135 18.6184 14.6242C18.6038 14.6349 18.5861 14.6407 18.568 14.6406C18.5499 14.6406 18.5323 14.6347 18.5178 14.6239L18.0059 14.2591L17.4941 14.6239C17.4794 14.6338 17.462 14.6388 17.4443 14.6384C17.4267 14.6381 17.4095 14.6323 17.3953 14.6218C17.381 14.6114 17.3703 14.5967 17.3647 14.58C17.359 14.5632 17.3587 14.5451 17.3637 14.5282L17.5537 13.9275L17.0474 13.5543C17.0338 13.5433 17.024 13.5284 17.0191 13.5115C17.0143 13.4947 17.0147 13.4769 17.0202 13.4603C17.0258 13.4437 17.0363 13.4292 17.0503 13.4188C17.0643 13.4083 17.0812 13.4024 17.0987 13.4018H17.7285L17.9283 12.8039C17.9347 12.7879 17.9457 12.7743 17.9599 12.7647C17.9741 12.7551 17.9909 12.75 18.008 12.75C18.0252 12.75 18.0419 12.7551 18.0561 12.7647C18.0704 12.7743 18.0814 12.7879 18.0878 12.8039H18.085Z" fill="#F5F5F5"/>
<path d="M18.0847 17.8869L18.2845 18.4848H18.9143C18.9325 18.4847 18.9502 18.4904 18.9649 18.501C18.9797 18.5116 18.9907 18.5266 18.9964 18.5439C19.0021 18.5611 19.0022 18.5797 18.9967 18.597C18.9911 18.6144 18.9803 18.6295 18.9656 18.6402L18.4593 19.0134L18.6479 19.6141C18.6539 19.6312 18.6542 19.6497 18.6488 19.667C18.6434 19.6843 18.6327 19.6994 18.6181 19.7101C18.6035 19.7208 18.5859 19.7265 18.5678 19.7265C18.5497 19.7264 18.5321 19.7206 18.5175 19.7098L18.0057 19.3449L17.4938 19.7098C17.4791 19.7196 17.4617 19.7247 17.4441 19.7243C17.4264 19.724 17.4093 19.7181 17.395 19.7077C17.3808 19.6972 17.3701 19.6826 17.3644 19.6659C17.3588 19.6491 17.3584 19.631 17.3634 19.6141L17.5534 19.0134L17.0471 18.6402C17.0324 18.6295 17.0216 18.6144 17.0161 18.597C17.0105 18.5797 17.0106 18.5611 17.0163 18.5439C17.022 18.5266 17.033 18.5116 17.0478 18.501C17.0625 18.4904 17.0803 18.4847 17.0984 18.4848H17.7282L17.928 17.8869C17.9338 17.8704 17.9446 17.8562 17.9589 17.8461C17.9732 17.836 17.9903 17.8306 18.0077 17.8306C18.0252 17.8306 18.0423 17.836 18.0566 17.8461C18.0709 17.8562 18.0817 17.8704 18.0875 17.8869H18.0847Z" fill="#F5F5F5"/>
<path d="M18.0848 22.5149L18.2846 23.1128H18.9143C18.9318 23.1134 18.9487 23.1193 18.9627 23.1298C18.9768 23.1402 18.9873 23.1547 18.9928 23.1713C18.9984 23.1879 18.9988 23.2058 18.9939 23.2226C18.9891 23.2394 18.9792 23.2543 18.9657 23.2654L18.4593 23.6385L18.648 24.2392C18.6539 24.2563 18.6543 24.2748 18.6489 24.2921C18.6435 24.3094 18.6327 24.3245 18.6182 24.3352C18.6036 24.3459 18.5859 24.3517 18.5678 24.3516C18.5497 24.3516 18.5321 24.3457 18.5176 24.3349L18.0057 23.9701L17.4938 24.3349C17.4792 24.3448 17.4618 24.3498 17.4441 24.3495C17.4264 24.3491 17.4093 24.3433 17.3951 24.3328C17.3808 24.3224 17.3701 24.3077 17.3645 24.291C17.3588 24.2742 17.3585 24.2562 17.3635 24.2392L17.5535 23.6385L17.0472 23.2654C17.0328 23.2547 17.0222 23.2398 17.0168 23.2227C17.0115 23.2057 17.0117 23.1874 17.0174 23.1704C17.0231 23.1535 17.034 23.1387 17.0486 23.1284C17.0631 23.118 17.0806 23.1126 17.0985 23.1128H17.7283L17.928 22.5149C17.9339 22.4984 17.9447 22.4841 17.959 22.474C17.9733 22.4639 17.9903 22.4585 18.0078 22.4585C18.0253 22.4585 18.0424 22.4639 18.0567 22.474C18.0709 22.4841 18.0817 22.4984 18.0876 22.5149H18.0848Z" fill="#F5F5F5"/>
<path d="M20.5113 4.63978L20.7111 5.23768H21.3409C21.3586 5.23777 21.3759 5.24346 21.3903 5.25392C21.4046 5.26438 21.4153 5.2791 21.4208 5.29598C21.4263 5.31286 21.4264 5.33105 21.421 5.34797C21.4156 5.3649 21.4051 5.3797 21.3908 5.39028L20.8845 5.76344L21.0731 6.36412C21.0781 6.38108 21.0778 6.39917 21.0721 6.41592C21.0665 6.43267 21.0558 6.44727 21.0415 6.45773C21.0273 6.46819 21.0101 6.474 20.9925 6.47438C20.9748 6.47476 20.9574 6.46968 20.9427 6.45984L20.4309 6.09499L19.919 6.45984C19.9043 6.46968 19.8869 6.47476 19.8693 6.47438C19.8516 6.474 19.8345 6.46819 19.8202 6.45773C19.806 6.44727 19.7953 6.43267 19.7896 6.41592C19.7839 6.39917 19.7836 6.38108 19.7886 6.36412L19.9786 5.76344L19.4723 5.39028C19.4588 5.37922 19.4489 5.36429 19.4441 5.34748C19.4392 5.33067 19.4396 5.31279 19.4452 5.29621C19.4507 5.27963 19.4612 5.26515 19.4753 5.25469C19.4893 5.24423 19.5062 5.2383 19.5236 5.23768H20.1534L20.3532 4.63978C20.3596 4.62387 20.3706 4.61025 20.3848 4.60065C20.399 4.59106 20.4158 4.58594 20.4329 4.58594C20.4501 4.58594 20.4669 4.59106 20.4811 4.60065C20.4953 4.61025 20.5063 4.62387 20.5127 4.63978H20.5113Z" fill="#F5F5F5"/>
<path d="M20.5116 10.178L20.7114 10.7759H21.3412C21.359 10.7761 21.3763 10.7819 21.3907 10.7925C21.405 10.803 21.4158 10.8177 21.4214 10.8346C21.427 10.8516 21.4273 10.8698 21.4221 10.8868C21.4169 10.9039 21.4066 10.9189 21.3925 10.9298L20.8862 11.303L21.0748 11.9037C21.0798 11.9206 21.0795 11.9387 21.0738 11.9555C21.0681 11.9722 21.0575 11.9868 21.0432 11.9973C21.029 12.0078 21.0118 12.0136 20.9942 12.0139C20.9765 12.0143 20.9591 12.0092 20.9444 11.9994L20.4325 11.6345L19.9207 11.9994C19.906 12.0092 19.8886 12.0143 19.8709 12.0139C19.8533 12.0136 19.8362 12.0078 19.8219 11.9973C19.8076 11.9868 19.797 11.9722 19.7913 11.9555C19.7856 11.9387 19.7853 11.9206 19.7903 11.9037L19.9803 11.303L19.474 10.9298C19.4599 10.9189 19.4496 10.9039 19.4444 10.8868C19.4392 10.8698 19.4395 10.8516 19.4451 10.8346C19.4507 10.8177 19.4615 10.803 19.4758 10.7925C19.4902 10.7819 19.5075 10.7761 19.5253 10.7759H20.1551L20.3549 10.178C20.3607 10.1615 20.3715 10.1472 20.3858 10.1371C20.4001 10.127 20.4172 10.1216 20.4346 10.1216C20.4521 10.1216 20.4692 10.127 20.4835 10.1371C20.4978 10.1472 20.5086 10.1615 20.5144 10.178H20.5116Z" fill="#F5F5F5"/>
<path d="M20.5113 15.4347L20.7111 16.0326H21.3409C21.3582 16.0335 21.3749 16.0396 21.3887 16.0502C21.4025 16.0607 21.4128 16.0752 21.4182 16.0918C21.4236 16.1083 21.4239 16.126 21.419 16.1427C21.4141 16.1594 21.4043 16.1742 21.3908 16.1852L20.8845 16.5584L21.0731 17.159C21.0781 17.176 21.0778 17.1941 21.0721 17.2108C21.0665 17.2276 21.0558 17.2422 21.0415 17.2526C21.0273 17.2631 21.0101 17.2689 20.9925 17.2693C20.9748 17.2697 20.9574 17.2646 20.9427 17.2548L20.4309 16.8899L19.919 17.2548C19.9043 17.2646 19.8869 17.2697 19.8693 17.2693C19.8516 17.2689 19.8345 17.2631 19.8202 17.2526C19.806 17.2422 19.7953 17.2276 19.7896 17.2108C19.7839 17.1941 19.7836 17.176 19.7886 17.159L19.9786 16.5584L19.4723 16.1852C19.4588 16.1742 19.4489 16.1592 19.4441 16.1424C19.4392 16.1256 19.4396 16.1077 19.4452 16.0911C19.4507 16.0746 19.4612 16.0601 19.4753 16.0496C19.4893 16.0392 19.5062 16.0332 19.5236 16.0326H20.1534L20.3532 15.4347C20.3596 15.4188 20.3706 15.4052 20.3848 15.3956C20.399 15.386 20.4158 15.3809 20.4329 15.3809C20.4501 15.3809 20.4669 15.386 20.4811 15.3956C20.4953 15.4052 20.5063 15.4188 20.5127 15.4347H20.5113Z" fill="#F5F5F5"/>
<path d="M20.5113 20.154L20.7111 20.7519H21.3409C21.3586 20.752 21.3759 20.7577 21.3903 20.7682C21.4046 20.7786 21.4153 20.7933 21.4208 20.8102C21.4263 20.8271 21.4264 20.8453 21.421 20.8622C21.4156 20.8792 21.4051 20.8939 21.3908 20.9045L20.8845 21.2777L21.0731 21.8784C21.0781 21.8953 21.0778 21.9134 21.0721 21.9302C21.0665 21.9469 21.0558 21.9615 21.0415 21.972C21.0273 21.9824 21.0101 21.9883 20.9925 21.9886C20.9748 21.989 20.9574 21.9839 20.9427 21.9741L20.4309 21.6092L19.919 21.9741C19.9043 21.9839 19.8869 21.989 19.8693 21.9886C19.8516 21.9883 19.8345 21.9824 19.8202 21.972C19.806 21.9615 19.7953 21.9469 19.7896 21.9302C19.7839 21.9134 19.7836 21.8953 19.7886 21.8784L19.9786 21.2777L19.4723 20.9045C19.4588 20.8935 19.4489 20.8786 19.4441 20.8617C19.4392 20.8449 19.4396 20.8271 19.4452 20.8105C19.4507 20.7939 19.4612 20.7794 19.4753 20.7689C19.4893 20.7585 19.5062 20.7525 19.5236 20.7519H20.1534L20.3532 20.154C20.359 20.1375 20.3698 20.1233 20.3841 20.1132C20.3984 20.1031 20.4154 20.0977 20.4329 20.0977C20.4504 20.0977 20.4675 20.1031 20.4818 20.1132C20.4961 20.1233 20.5069 20.1375 20.5127 20.154H20.5113Z" fill="#F5F5F5"/>
<path d="M22.9303 2.28196L23.13 2.87986H23.7598C23.7776 2.87995 23.7949 2.88563 23.8092 2.8961C23.8236 2.90656 23.8343 2.92128 23.8398 2.93816C23.8453 2.95504 23.8454 2.97323 23.84 2.99015C23.8346 3.00707 23.824 3.02188 23.8097 3.03245L23.3034 3.40562L23.4935 4.0063C23.4985 4.02326 23.4981 4.04134 23.4924 4.05809C23.4868 4.07485 23.4761 4.08945 23.4619 4.09991C23.4476 4.11037 23.4305 4.11618 23.4128 4.11656C23.3951 4.11694 23.3778 4.11186 23.3631 4.10202L22.8512 3.73717L22.3393 4.10202C22.3248 4.11281 22.3072 4.11867 22.2891 4.11872C22.271 4.11877 22.2534 4.11302 22.2388 4.10231C22.2242 4.09161 22.2134 4.0765 22.208 4.05922C22.2027 4.04194 22.203 4.02339 22.2089 4.0063L22.3976 3.40562L21.8912 3.03245C21.8777 3.0214 21.8678 3.00647 21.863 2.98966C21.8581 2.97285 21.8585 2.95497 21.8641 2.93839C21.8697 2.92181 21.8802 2.90733 21.8942 2.89687C21.9082 2.88641 21.9251 2.88048 21.9426 2.87986H22.5724L22.7721 2.28196C22.778 2.26547 22.7888 2.25119 22.8031 2.2411C22.8173 2.231 22.8344 2.22559 22.8519 2.22559C22.8694 2.22559 22.8864 2.231 22.9007 2.2411C22.915 2.25119 22.9258 2.26547 22.9316 2.28196H22.9303Z" fill="#F5F5F5"/>
<path d="M22.931 7.27161L23.1307 7.86951H23.7605C23.7783 7.8698 23.7956 7.8756 23.81 7.88613C23.8244 7.89666 23.8351 7.9114 23.8408 7.92831C23.8464 7.94521 23.8467 7.96346 23.8415 7.98051C23.8363 7.99756 23.8259 8.01258 23.8119 8.0235L23.3055 8.39666L23.4942 8.99734C23.5001 9.01443 23.5004 9.03298 23.4951 9.05027C23.4897 9.06755 23.4789 9.08264 23.4643 9.09335C23.4498 9.10406 23.4321 9.10981 23.414 9.10976C23.3959 9.1097 23.3783 9.10385 23.3638 9.09306L22.8519 8.72821L22.34 9.09306C22.3255 9.10385 22.3079 9.1097 22.2898 9.10976C22.2717 9.10981 22.2541 9.10406 22.2395 9.09335C22.2249 9.08264 22.2141 9.06755 22.2088 9.05027C22.2034 9.03298 22.2037 9.01443 22.2096 8.99734L22.3983 8.39666L21.892 8.0235C21.8779 8.01258 21.8675 7.99756 21.8624 7.98051C21.8572 7.96346 21.8574 7.94521 21.8631 7.92831C21.8687 7.9114 21.8794 7.89666 21.8938 7.88613C21.9082 7.8756 21.9255 7.8698 21.9433 7.86951H22.5731L22.7728 7.27161C22.7792 7.25571 22.7903 7.24209 22.8045 7.2325C22.8187 7.2229 22.8354 7.21777 22.8526 7.21777C22.8697 7.21777 22.8865 7.2229 22.9007 7.2325C22.9149 7.24209 22.926 7.25571 22.9324 7.27161H22.931Z" fill="#F5F5F5"/>
<path d="M22.9309 12.8039L23.1307 13.4018H23.7604C23.7782 13.4019 23.7955 13.4076 23.8099 13.4181C23.8242 13.4285 23.8349 13.4432 23.8404 13.4601C23.8459 13.477 23.846 13.4952 23.8406 13.5121C23.8352 13.5291 23.8246 13.5438 23.8104 13.5544L23.3041 13.9276L23.4941 14.5283C23.5 14.5454 23.5004 14.5639 23.495 14.5812C23.4896 14.5985 23.4788 14.6136 23.4643 14.6243C23.4497 14.635 23.432 14.6407 23.4139 14.6407C23.3958 14.6406 23.3782 14.6348 23.3637 14.624L22.8518 14.2591L22.3399 14.624C22.3254 14.6348 22.3078 14.6406 22.2897 14.6407C22.2716 14.6407 22.254 14.635 22.2394 14.6243C22.2248 14.6136 22.214 14.5985 22.2087 14.5812C22.2033 14.5639 22.2036 14.5454 22.2096 14.5283L22.3982 13.9276L21.8919 13.5544C21.8775 13.5438 21.8669 13.5289 21.8616 13.5118C21.8562 13.4947 21.8564 13.4764 21.8621 13.4595C21.8678 13.4425 21.8787 13.4278 21.8933 13.4175C21.9079 13.4071 21.9253 13.4016 21.9432 13.4018H22.573L22.7728 12.8039C22.7786 12.7874 22.7894 12.7732 22.8037 12.7631C22.818 12.753 22.835 12.7476 22.8525 12.7476C22.87 12.7476 22.8871 12.753 22.9014 12.7631C22.9156 12.7732 22.9264 12.7874 22.9323 12.8039H22.9309Z" fill="#F5F5F5"/>
<path d="M22.931 17.8868L23.1307 18.4847H23.7605C23.7783 18.485 23.7956 18.4908 23.81 18.5014C23.8244 18.5119 23.8351 18.5266 23.8408 18.5435C23.8464 18.5604 23.8467 18.5787 23.8415 18.5957C23.8363 18.6128 23.8259 18.6278 23.8119 18.6387L23.3055 19.0119L23.4942 19.6126C23.5001 19.6297 23.5004 19.6482 23.4951 19.6655C23.4897 19.6828 23.4789 19.6979 23.4643 19.7086C23.4498 19.7193 23.4321 19.725 23.414 19.725C23.3959 19.7249 23.3783 19.7191 23.3638 19.7083L22.8519 19.3434L22.34 19.7083C22.3255 19.7191 22.3079 19.7249 22.2898 19.725C22.2717 19.725 22.2541 19.7193 22.2395 19.7086C22.2249 19.6979 22.2141 19.6828 22.2088 19.6655C22.2034 19.6482 22.2037 19.6297 22.2096 19.6126L22.3983 19.0119L21.892 18.6387C21.8779 18.6278 21.8675 18.6128 21.8624 18.5957C21.8572 18.5787 21.8574 18.5604 21.8631 18.5435C21.8687 18.5266 21.8794 18.5119 21.8938 18.5014C21.9082 18.4908 21.9255 18.485 21.9433 18.4847H22.5731L22.7728 17.8868C22.7792 17.8709 22.7903 17.8573 22.8045 17.8477C22.8187 17.8381 22.8354 17.833 22.8526 17.833C22.8697 17.833 22.8865 17.8381 22.9007 17.8477C22.9149 17.8573 22.926 17.8709 22.9324 17.8868H22.931Z" fill="#F5F5F5"/>
<path d="M22.9309 22.5149L23.1307 23.1128H23.7604C23.7779 23.1134 23.7948 23.1193 23.8088 23.1298C23.8229 23.1402 23.8334 23.1547 23.8389 23.1713C23.8445 23.1879 23.8449 23.2058 23.84 23.2226C23.8352 23.2394 23.8253 23.2543 23.8118 23.2654L23.3054 23.6385L23.4941 24.2392C23.5 24.2563 23.5004 24.2748 23.495 24.2921C23.4896 24.3094 23.4788 24.3245 23.4643 24.3352C23.4497 24.3459 23.432 24.3517 23.4139 24.3516C23.3958 24.3516 23.3782 24.3457 23.3637 24.3349L22.8518 23.9701L22.3399 24.3349C22.3254 24.3457 22.3078 24.3516 22.2897 24.3516C22.2716 24.3517 22.254 24.3459 22.2394 24.3352C22.2248 24.3245 22.214 24.3094 22.2087 24.2921C22.2033 24.2748 22.2036 24.2563 22.2096 24.2392L22.3982 23.6385L21.8919 23.2654C21.8775 23.2547 21.8669 23.2398 21.8616 23.2227C21.8562 23.2057 21.8564 23.1874 21.8621 23.1704C21.8678 23.1535 21.8787 23.1387 21.8933 23.1284C21.9079 23.118 21.9253 23.1126 21.9432 23.1128H22.573L22.7728 22.5149C22.7786 22.4984 22.7894 22.4841 22.8037 22.474C22.818 22.4639 22.835 22.4585 22.8525 22.4585C22.87 22.4585 22.8871 22.4639 22.9014 22.474C22.9156 22.4841 22.9264 22.4984 22.9323 22.5149H22.9309Z" fill="#F5F5F5"/>
</g>
</svg>
