<svg width="48" height="48" viewBox="0 0 48 48" fill="none" xmlns="http://www.w3.org/2000/svg">
<path d="M24 48C37.2548 48 48 37.2548 48 24C48 10.7452 37.2548 0 24 0C10.7452 0 0 10.7452 0 24C0 37.2548 10.7452 48 24 48Z" fill="#F0F0F0"/>
<path d="M47.7402 24.13C47.7402 19.2558 46.2486 14.4982 43.4657 10.4965C40.6829 6.4947 36.7421 3.44035 32.1727 1.74365V46.5149C36.7419 44.8183 40.6825 41.7642 43.4654 37.7627C46.2482 33.7612 47.7399 29.004 47.7402 24.13Z" fill="#D80027"/>
<path d="M0 24.13C3.84529e-05 29.0043 1.49165 33.7618 4.27449 37.7635C7.05733 41.7653 10.9981 44.8197 15.5675 46.5164V1.74365C10.9981 3.44035 7.05733 6.4947 4.27449 10.4965C1.49165 14.4982 3.84529e-05 19.2558 0 24.13Z" fill="#0052B4"/>
</svg>
