<svg width="48" height="48" viewBox="0 0 48 48" fill="none" xmlns="http://www.w3.org/2000/svg">
<path d="M24.0003 48C37.2547 48 47.9995 37.2548 47.9995 24C47.9995 10.7452 37.2547 0 24.0003 0C10.7458 0 0.000976562 10.7452 0.000976562 24C0.000976562 37.2548 10.7458 48 24.0003 48Z" fill="white"/>
<path d="M46.6219 15.9966H31.8369C32.4747 21.28 32.4747 26.6209 31.8369 31.9044H46.6346C48.4309 26.752 48.4195 21.1416 46.6021 15.9966H46.6219Z" fill="#DB2727"/>
<path d="M31.8372 15.9965H46.6222V15.9753C45.085 11.6489 42.3397 7.85383 38.7116 5.0399C35.0836 2.22598 30.725 0.511148 26.1522 0.0986328C29.8269 2.11463 30.8984 8.49299 31.8372 15.9965Z" fill="#151515"/>
<path d="M26.1522 47.9026C30.7326 47.4882 35.0976 45.7672 38.7284 42.9442C42.3592 40.1212 45.1029 36.3149 46.6335 31.9779L46.6575 31.9087H31.8499C30.9281 39.456 29.8396 45.8739 26.1522 47.9026Z" fill="#F8D12E"/>
<path d="M1.56842e-05 23.9985C-0.00306418 26.6899 0.447467 29.3626 1.33268 31.9044H33.0851C33.7231 26.621 33.7231 21.28 33.0851 15.9966H1.3708C0.461804 18.5664 -0.00178352 21.2726 1.56842e-05 23.9985Z" fill="#DB2727"/>
<path d="M1.37787 15.9755V15.9967H33.0739C32.1322 8.49318 29.8269 2.112 26.1564 0.0988236C25.4435 0.0352942 24.7235 4.41057e-08 23.9979 4.41057e-08C19.0389 -0.000300525 14.2016 1.53563 10.151 4.3966C6.10049 7.25758 3.03563 11.3031 1.37787 15.9769V15.9755Z" fill="#151515"/>
<path d="M33.0847 31.9043H1.33789L1.36189 31.9734C3.01278 36.6585 6.07667 40.7159 10.131 43.5859C14.1853 46.4559 19.0302 47.9971 23.9974 47.997C24.7259 47.997 25.4431 47.9617 26.1517 47.8982C29.8392 45.8737 32.1544 39.4558 33.0847 31.9043Z" fill="#F8D12E"/>
</svg>
