<svg width="48" height="48" viewBox="0 0 48 48" fill="none" xmlns="http://www.w3.org/2000/svg">
<path d="M46.62 16L1.3801 16C3.03403 11.322 6.09718 7.27157 10.148 4.40625C14.1989 1.54093 19.0383 0.00153288 24 -4.94376e-07C28.9618 0.0015331 33.8012 1.54093 37.8521 4.40625C41.9029 7.27157 44.9661 11.322 46.62 16V16Z" fill="#FF9933"/>
<path d="M46.6199 32L1.38005 32C0.461411 29.4331 -0.00549892 26.7264 5.01952e-05 24C-0.00549869 21.2736 0.461412 18.5669 1.38005 16L46.6199 16C47.5386 18.5669 48.0055 21.2736 48 24C48.0055 26.7264 47.5386 29.4331 46.6199 32V32Z" fill="#F3F4F5"/>
<path d="M24 48C19.0383 47.9985 14.1989 46.4591 10.148 43.5937C6.09718 40.7284 3.03403 36.678 1.3801 32L46.62 32C44.9661 36.678 41.9029 40.7284 37.8521 43.5937C33.8012 46.4591 28.9618 47.9985 24 48V48Z" fill="#128807"/>
<path d="M23.88 18C22.7162 18 21.5784 18.3454 20.611 18.9924C19.6437 19.6394 18.8901 20.5589 18.4456 21.6345C18.0012 22.7101 17.886 23.8933 18.1145 25.0345C18.343 26.1756 18.9049 27.2233 19.7292 28.0449C20.5535 28.8664 21.6032 29.4248 22.7451 29.6494C23.887 29.874 25.0699 29.7548 26.144 29.3066C27.2181 28.8585 28.1349 28.1018 28.7786 27.1322C29.4223 26.1626 29.7639 25.0238 29.76 23.86C29.7547 22.304 29.1327 20.8135 28.0306 19.7151C26.9284 18.6168 25.436 18 23.88 18M23.88 18.58L23.7199 21.52L23.88 23.2L24.0399 21.52L23.88 18.68H24.3199C24.3199 18.7489 24.3473 18.8151 24.3961 18.8638C24.4448 18.9126 24.511 18.94 24.5799 18.94C24.639 18.9361 24.695 18.9122 24.7386 18.8722C24.7822 18.8322 24.8109 18.7785 24.8199 18.72L25.2399 18.84L24.3399 21.64L24.0399 23.3L24.64 21.72L25.26 18.84L25.6799 18.98C25.6845 19.0421 25.7113 19.1005 25.7553 19.1445C25.7994 19.1886 25.8578 19.2154 25.9199 19.22C25.9686 19.2195 26.0165 19.2064 26.0585 19.1819C26.1006 19.1573 26.1355 19.1222 26.1599 19.08L26.5399 19.28L24.9399 21.76L24.2199 23.3L25.1999 21.92L26.5599 19.28L26.9199 19.52C26.9054 19.5724 26.9054 19.6276 26.9199 19.68C26.9199 19.7436 26.9452 19.8047 26.9902 19.8497C27.0352 19.8947 27.0962 19.92 27.1599 19.92C27.1983 19.9179 27.2359 19.908 27.2703 19.8908C27.3047 19.8736 27.3353 19.8495 27.3599 19.82L27.6799 20.12L25.4999 22.12L24.3999 23.42L25.7199 22.34L27.7199 20.14C27.8192 20.2483 27.9127 20.3618 27.9999 20.48C27.9873 20.5083 27.9807 20.539 27.9807 20.57C27.9807 20.601 27.9873 20.6317 27.9999 20.66C27.9999 20.7236 28.0251 20.7847 28.0701 20.8297C28.1151 20.8747 28.1763 20.9 28.2399 20.9H28.3799C28.4783 21.014 28.5592 21.1421 28.6199 21.28L25.9999 22.62L24.6199 23.6L26.1599 22.9L28.64 21.28C28.7147 21.416 28.7814 21.5563 28.8399 21.7C28.7979 21.7193 28.7622 21.7503 28.7374 21.7893C28.7125 21.8283 28.6995 21.8737 28.6999 21.92C28.6999 21.9836 28.7252 22.0447 28.7702 22.0897C28.8152 22.1347 28.8762 22.16 28.9399 22.16C28.9955 22.2968 29.0423 22.4372 29.0799 22.58L26.1799 23.18L24.5999 23.78L26.26 23.5L29.0799 22.6C29.0913 22.7397 29.0913 22.8803 29.0799 23.02C29.0198 23.025 28.9638 23.0525 28.923 23.097C28.8823 23.1415 28.8597 23.1997 28.8599 23.26C28.8598 23.2933 28.8665 23.3262 28.8798 23.3567C28.8931 23.3872 28.9126 23.4146 28.9371 23.4372C28.9615 23.4598 28.9904 23.477 29.0219 23.4878C29.0534 23.4986 29.0868 23.5028 29.1199 23.5V23.5C29.1299 23.6465 29.1299 23.7935 29.1199 23.94L26.1599 23.8L24.4799 23.94L26.1599 24.12L29.1199 23.96C29.1304 24.1065 29.1304 24.2535 29.1199 24.4V24.4C29.0543 24.3998 28.991 24.4244 28.9428 24.4689C28.8946 24.5134 28.865 24.5746 28.8599 24.64C28.8638 24.6991 28.8877 24.7551 28.9277 24.7987C28.9677 24.8423 29.0214 24.871 29.0799 24.88C29.0799 25.04 29.0799 25.18 29.0799 25.32L28.0799 25L26.26 24.4L24.5999 24.12L26.1799 24.72L29.0799 25.34C29.0453 25.4772 28.9985 25.6111 28.9399 25.74V25.74C28.9067 25.7372 28.8733 25.7414 28.8419 25.7522C28.8104 25.763 28.7816 25.7802 28.7571 25.8028C28.7327 25.8254 28.7132 25.8528 28.6999 25.8833C28.6866 25.9138 28.6798 25.9467 28.6799 25.98C28.6799 25.98 28.6799 25.98 28.6799 26.08L28.4799 26.48L25.9999 24.88L24.4599 24.18L25.26 24.74L25.8399 25.14L28.4599 26.48L28.2199 26.86H28.0799C28.0162 26.86 27.9552 26.8853 27.9102 26.9303C27.8652 26.9753 27.8399 27.0363 27.8399 27.1C27.8399 27.1 27.8399 27.26 27.8399 27.28C27.7574 27.3957 27.6636 27.5029 27.5599 27.6L25.5599 25.42L24.26 24.34L25.3399 25.64L27.5198 27.64C27.4231 27.7501 27.316 27.8505 27.1999 27.94C27.1545 27.9248 27.1053 27.9248 27.0599 27.94C26.9943 27.9398 26.931 27.9645 26.8828 28.009C26.8345 28.0535 26.8049 28.1146 26.7999 28.18C26.7999 28.18 26.7999 28.18 26.7999 28.3L26.4199 28.54L25.0599 25.92L24.0799 24.52L24.7999 26.06L26.3999 28.54L26.0799 28.68C26.0616 28.6356 26.0313 28.5971 25.9925 28.5689C25.9537 28.5407 25.9078 28.5238 25.8599 28.52C25.7943 28.5198 25.731 28.5444 25.6828 28.5889C25.6346 28.6334 25.605 28.6946 25.5999 28.76C25.5999 28.76 25.5999 28.76 25.5999 28.76L25.1799 28.88L24.5599 26L23.9599 24.42L24.26 26.08L25.1599 28.9C25.0205 28.9189 24.8793 28.9189 24.7399 28.9C24.7243 28.8466 24.6931 28.799 24.6503 28.7634C24.6076 28.7278 24.5553 28.7057 24.5 28.7C24.4343 28.6998 24.3711 28.7244 24.3228 28.7689C24.2746 28.8134 24.245 28.8746 24.2399 28.94V28.94H23.7999L23.9599 25.98L23.7999 24.3L23.64 25.98L23.7999 28.94H23.3399C23.3399 28.8763 23.3146 28.8153 23.2696 28.7703C23.2246 28.7253 23.1636 28.7 23.0999 28.7C23.0437 28.7028 22.9898 28.7239 22.9465 28.7599C22.9032 28.796 22.8729 28.8451 22.8599 28.9H22.4399L23.3399 26.08L23.6199 24.42L23.0399 26L22.4199 28.88C22.2774 28.8493 22.1372 28.8092 22 28.76C22 28.76 22 28.76 22 28.76C22 28.6964 21.9747 28.6353 21.9296 28.5903C21.8846 28.5453 21.8236 28.52 21.76 28.52C21.6963 28.52 21.6352 28.5453 21.5902 28.5903C21.5452 28.6353 21.5199 28.6964 21.5199 28.76L21.14 28.54L22.7399 26.06L23.4399 24.52L22.4599 25.9L21.12 28.54L20.7399 28.3C20.7518 28.2541 20.7518 28.2059 20.7399 28.16C20.7427 28.1284 20.7392 28.0967 20.7296 28.0665C20.72 28.0364 20.7045 28.0084 20.684 27.9842C20.6636 27.96 20.6386 27.9402 20.6104 27.9257C20.5823 27.9113 20.5514 27.9025 20.5199 27.9C20.4806 27.8972 20.4414 27.9051 20.4062 27.9227C20.371 27.9403 20.3413 27.967 20.3199 28C20.2038 27.9105 20.0967 27.8101 20 27.7L22.1799 25.7L23.26 24.4L21.9599 25.48L19.9599 27.66L19.6599 27.34C19.6726 27.3117 19.6792 27.281 19.6792 27.25C19.6792 27.219 19.6726 27.1883 19.6599 27.16C19.6599 27.0963 19.6347 27.0353 19.5897 26.9903C19.5447 26.9453 19.4835 26.92 19.4199 26.92H19.26C19.175 26.8004 19.1012 26.6732 19.0399 26.54L21.6599 25.2L23.0399 24.24L21.5 24.94L19.0199 26.54C19.0199 26.42 18.8999 26.28 18.8199 26.14C18.8674 26.1266 18.9089 26.0976 18.938 26.0577C18.967 26.0178 18.9818 25.9693 18.9799 25.92C18.9799 25.8563 18.9546 25.7953 18.9096 25.7503C18.8646 25.7053 18.8036 25.68 18.74 25.68H18.64C18.5843 25.5431 18.5376 25.4029 18.5 25.26L21.38 24.64L22.9799 24.04L21.2999 24.32L18.5 25.24C18.455 25.0962 18.4215 24.9491 18.3999 24.8C18.4564 24.7904 18.5076 24.761 18.5443 24.717C18.581 24.673 18.6007 24.6173 18.5999 24.56C18.5999 24.4963 18.5746 24.4353 18.5296 24.3903C18.4846 24.3452 18.4236 24.32 18.3599 24.32C18.3495 24.1735 18.3495 24.0265 18.3599 23.88L21.2999 24.04L22.9799 23.86L21.2999 23.72L18.3599 23.86C18.35 23.7135 18.35 23.5665 18.3599 23.42V23.42C18.4236 23.42 18.4846 23.3947 18.5296 23.3497C18.5746 23.3047 18.5999 23.2436 18.5999 23.18C18.6001 23.1197 18.5776 23.0614 18.5368 23.017C18.4961 22.9725 18.4401 22.945 18.38 22.94C18.4015 22.7975 18.4349 22.657 18.4799 22.52L21.2799 23.42L22.9599 23.7L21.3599 23.1L18.4799 22.5C18.5109 22.3553 18.5579 22.2144 18.62 22.08V22.08C18.6836 22.08 18.7446 22.0547 18.7896 22.0097C18.8346 21.9647 18.8599 21.9036 18.8599 21.84C18.8603 21.7937 18.8472 21.7483 18.8224 21.7093C18.7975 21.6703 18.762 21.6393 18.7199 21.62C18.7785 21.4828 18.8453 21.3492 18.9199 21.22L21.3999 22.84L22.9399 23.54L21.5599 22.56L18.9399 21.22C19.0049 21.0782 19.0854 20.9441 19.1799 20.82C19.2017 20.8306 19.2257 20.8361 19.25 20.8361C19.2742 20.8361 19.2981 20.8306 19.3199 20.82C19.3836 20.82 19.4446 20.7947 19.4896 20.7497C19.5346 20.7047 19.5599 20.6437 19.5599 20.58C19.576 20.5143 19.576 20.4457 19.5599 20.38L19.8399 20.06L21.8399 22.26L23.14 23.34L22.0599 22.04L19.88 20.04L20.1999 19.74C20.2226 19.7716 20.2527 19.7973 20.2876 19.8147C20.3224 19.8321 20.3609 19.8408 20.3999 19.84C20.4653 19.8349 20.5265 19.8054 20.571 19.7571C20.6155 19.7089 20.6402 19.6456 20.64 19.58C20.6493 19.5579 20.6541 19.5341 20.6541 19.51C20.6541 19.486 20.6493 19.4622 20.64 19.44L21.0199 19.2L22.3599 21.84L23.3399 23.2L22.64 21.68L21.0399 19.2L21.4199 19C21.4392 19.0421 21.4702 19.0776 21.5092 19.1025C21.5483 19.1273 21.5937 19.1404 21.64 19.14C21.6705 19.1428 21.7013 19.1391 21.7303 19.1293C21.7593 19.1195 21.786 19.1038 21.8086 19.0831C21.8311 19.0624 21.8492 19.0372 21.8615 19.0091C21.8738 18.981 21.8801 18.9506 21.88 18.92V18.82C22.0157 18.7614 22.1561 18.7145 22.2999 18.68L22.9199 21.56L23.5 23.14L23.2199 21.48L22.3199 18.68C22.4571 18.6308 22.5975 18.5907 22.7399 18.56C22.7489 18.6185 22.7776 18.6722 22.8212 18.7122C22.8649 18.7522 22.9209 18.7761 22.9799 18.78C23.0489 18.78 23.115 18.7526 23.1638 18.7039C23.2125 18.6551 23.2399 18.589 23.2399 18.52H23.6799" fill="#16007E"/>
<path d="M23.88 23C24.0549 23 24.2257 23.0522 24.3708 23.1498C24.5159 23.2474 24.6287 23.3861 24.6947 23.548C24.7607 23.71 24.7769 23.8879 24.7413 24.0591C24.7057 24.2304 24.6198 24.3871 24.4947 24.5093C24.3697 24.6316 24.211 24.7138 24.039 24.7454C23.867 24.7771 23.6894 24.7568 23.529 24.6871C23.3686 24.6175 23.2327 24.5016 23.1384 24.3542C23.0442 24.2069 22.996 24.0348 23 23.86C23.0052 23.6301 23.1002 23.4113 23.2646 23.2506C23.4291 23.0899 23.65 22.9999 23.88 23" fill="white"/>
<path d="M23.88 23.1992C24.0569 23.1991 24.2269 23.268 24.3539 23.3912C24.4808 23.5145 24.5547 23.6823 24.5599 23.8592C24.5599 24.0395 24.4884 24.2125 24.3608 24.34C24.2333 24.4676 24.0604 24.5392 23.88 24.5392C23.6997 24.5392 23.5267 24.4676 23.3992 24.34C23.2716 24.2125 23.2 24.0395 23.2 23.8592C23.2052 23.6823 23.279 23.5145 23.406 23.3912C23.533 23.268 23.7031 23.1991 23.88 23.1992" fill="#16007E"/>
</svg>
