<svg width="48" height="48" viewBox="0 0 48 48" fill="none" xmlns="http://www.w3.org/2000/svg">
<path d="M24 47.9996C37.2548 47.9996 48 37.2549 48 24.0005C48 10.7462 37.2548 0.00146484 24 0.00146484C10.7452 0.00146484 0 10.7462 0 24.0005C0 37.2549 10.7452 47.9996 24 47.9996Z" fill="#DBDBDB"/>
<path d="M0 23.7355C0.0160826 20.6009 0.649759 17.5001 1.86481 14.6105C3.07987 11.7209 4.85248 9.09904 7.08133 6.89478C9.31019 4.69053 11.9516 2.94709 14.8546 1.76412C17.7576 0.581148 20.8653 -0.01817 24 0.000419565C30.33 -0.0341221 36.4146 2.44702 40.9154 6.89811C45.4161 11.3492 47.9645 17.4057 48 23.7355" fill="#A2001D"/>
</svg>
