<svg width="45" height="45" viewBox="0 0 45 45" fill="none" xmlns="http://www.w3.org/2000/svg">
<path d="M22.38 44.7599C34.7401 44.7599 44.7599 34.7401 44.7599 22.38C44.7599 10.0199 34.7401 0 22.38 0C10.0199 0 0 10.0199 0 22.38C0 34.7401 10.0199 44.7599 22.38 44.7599Z" fill="#F0F0F0"/>
<path d="M44.7954 22.363C44.7962 17.7885 43.3963 13.3233 40.7839 9.56809C38.1715 5.81284 34.4719 2.94752 30.1826 1.35742V43.3528C34.4705 41.7634 38.1692 38.8995 40.7815 35.1461C43.3938 31.3926 44.7945 26.9294 44.7954 22.3564V22.363Z" fill="#D80027"/>
<path d="M1.31035e-07 22.3626C0.000580629 26.9345 1.40028 31.3967 4.01106 35.1497C6.62184 38.9028 10.3187 41.7671 14.6049 43.3577V1.3623C10.3178 2.95321 6.62041 5.81824 4.00956 9.57238C1.3987 13.3265 -0.000494381 17.7899 1.31035e-07 22.3626Z" fill="#6DA544"/>
</svg>
