<svg width="64" height="64" viewBox="0 0 64 64" fill="none" xmlns="http://www.w3.org/2000/svg">
<rect width="64" height="64" fill="#FFC50D"/>
<path d="M29.8087 49.9999C29.6698 50.0004 29.5316 49.9801 29.3987 49.9399C29.0796 49.8564 28.797 49.67 28.5946 49.4097C28.3921 49.1494 28.2811 48.8297 28.2787 48.4999V37.7999H21.5187C21.252 37.8026 20.9894 37.7346 20.7575 37.6029C20.5257 37.4711 20.3329 37.2803 20.1987 37.0499C20.061 36.8221 19.9883 36.561 19.9883 36.2949C19.9883 36.0288 20.061 35.7677 20.1987 35.5399L32.7487 14.7299C32.9201 14.4452 33.1802 14.2245 33.4891 14.1017C33.7979 13.9789 34.1385 13.9607 34.4587 14.0499C34.7814 14.1297 35.0685 14.3144 35.2748 14.575C35.4812 14.8357 35.5951 15.1575 35.5987 15.4899V26.4299H42.4687C42.7376 26.4285 43.0021 26.498 43.2356 26.6314C43.4691 26.7649 43.6633 26.9575 43.7987 27.1899C43.9332 27.4188 44.0041 27.6794 44.0041 27.9449C44.0041 28.2104 43.9332 28.4711 43.7987 28.6999L31.1087 49.2699C30.9722 49.4923 30.7811 49.6762 30.5536 49.804C30.326 49.9318 30.0696 49.9992 29.8087 49.9999ZM24.1987 34.7999H29.8087C30.2083 34.7999 30.592 34.9573 30.8764 35.238C31.1609 35.5188 31.3234 35.9003 31.3287 36.2999V43.1199L39.7587 29.4299H34.1287C33.7272 29.4326 33.3411 29.2764 33.0544 28.9953C32.7678 28.7143 32.6039 28.3313 32.5987 27.9299V20.9299L24.1987 34.7999Z" fill="#153743"/>
</svg>
