<svg width="48" height="48" viewBox="0 0 48 48" fill="none" xmlns="http://www.w3.org/2000/svg">
<path d="M37.2598 4.00008H24.0001V9.15005e-05C28.7193 -0.0130024 33.3352 1.3795 37.2598 4.00008V4.00008Z" fill="#D80031"/>
<path d="M41.8999 7.99999H24.0001V4H37.2598C38.971 5.12965 40.5305 6.47393 41.8999 7.99999V7.99999Z" fill="#F3F4F5"/>
<path d="M44.7798 12H24.0001V8H41.8999C43.0015 9.22544 43.967 10.5666 44.7798 12V12Z" fill="#D80031"/>
<path d="M46.6196 16H24.0001V12H44.7798C45.5253 13.2684 46.1416 14.6085 46.6196 16V16Z" fill="#F3F4F5"/>
<path d="M47.6597 20H24.0001V16H46.6196C47.0902 17.298 47.4384 18.6372 47.6597 20V20Z" fill="#D80031"/>
<path d="M48 24H24.0001V20H47.6597C47.8845 21.3215 47.9986 22.6595 48 24Z" fill="#F3F4F5"/>
<path d="M47.9999 24C47.9985 25.3405 47.8844 26.6785 47.6595 28H0.339964C0.113995 26.6786 0.000412629 25.3405 0.00012207 24H47.9999Z" fill="#D80031"/>
<path d="M47.6597 28C47.4384 29.3628 47.0902 30.702 46.6196 32H1.38012C0.909605 30.702 0.561387 29.3628 0.340088 28H47.6597Z" fill="#F3F4F5"/>
<path d="M46.6196 32C46.1416 33.3915 45.5254 34.7315 44.7798 36H3.21996C2.47442 34.7315 1.85816 33.3915 1.38013 32H46.6196Z" fill="#D80031"/>
<path d="M44.7798 36C43.9671 37.4334 43.0015 38.7746 41.9 40H6.11986C5.01202 38.7749 4.03981 37.4338 3.21997 36H44.7798Z" fill="#F3F4F5"/>
<path d="M41.8999 40C40.5305 41.5261 38.971 42.8703 37.2598 44H10.7799C9.07003 42.8766 7.5164 41.5315 6.15985 40H41.8999Z" fill="#D80031"/>
<path d="M37.2598 44C33.3352 46.6206 28.7192 48.0131 24.0001 48C19.281 48.0131 14.6646 46.6206 10.7399 44H37.2598Z" fill="#F3F4F5"/>
<path d="M24 9.15005e-05V24H0.00012207C0.00154906 22.6596 0.115123 21.3215 0.339964 20.0001C0.561263 18.6372 0.909481 17.2981 1.38 16.0001C1.85803 14.6086 2.47429 13.2685 3.21983 12.0001C4.0326 10.5667 4.9981 9.22552 6.0997 8.00008C7.46914 6.47401 9.02864 5.12973 10.7398 4.00008C14.6645 1.3795 19.2809 -0.0130024 24 9.15005e-05Z" fill="#2530A9"/>
<path d="M23.9999 24H0V24.02H23.9999V24Z" fill="#2530A9"/>
<path d="M7.61986 14.9398C7.61723 14.2973 7.74152 13.6606 7.98558 13.0662C8.22965 12.4718 8.58881 11.9315 9.04222 11.4762C9.49563 11.0209 10.0343 10.6597 10.6277 10.4132C11.221 10.1667 11.8577 10.0398 12.5002 10.0398C13.404 10.0361 14.2904 10.2856 15.0598 10.7599C14.0386 9.84192 12.7132 9.33583 11.3401 9.33987C9.85485 9.33987 8.43032 9.9298 7.38012 10.98C6.32992 12.0302 5.73999 13.4546 5.73999 14.9398C5.74528 16.4216 6.33782 17.8408 7.38744 18.8867C8.43707 19.9326 9.85831 20.5198 11.3401 20.5198C12.7132 20.5238 14.0386 20.0179 15.0598 19.0999C14.2904 19.5742 13.404 19.8236 12.5002 19.8198C11.206 19.8198 9.96472 19.3057 9.04954 18.3905C8.13437 17.4753 7.61986 16.2341 7.61986 14.9398" fill="#F5D028"/>
<path d="M18.7998 14.9398L21.4798 13.8998L18.6198 14.1198L20.5798 12.0198L18.0998 13.4798L18.9598 10.7398L17.3598 13.1198L16.9398 10.2598L16.6398 12.2998L16.5598 12.8998L16.5198 13.1198L14.9198 10.7398L15.7798 13.4798L13.2998 12.0198L15.2598 14.1198L12.3998 13.8998L15.0798 14.9398L12.3998 15.9798L15.2598 15.7398L13.2998 17.8398L15.7798 16.3998L14.9198 19.1397L16.5198 16.7598L16.5598 16.9798L16.6398 17.5598L16.9398 19.5997L17.3598 16.7598L18.9598 19.1397L18.0998 16.3998L20.5798 17.8398L18.6198 15.7398L21.4798 15.9798L18.7998 14.9398Z" fill="#F5D028"/>
</svg>
