<svg width="48" height="48" viewBox="0 0 48 48" fill="none" xmlns="http://www.w3.org/2000/svg">
<path d="M48 24H24L7.02002 7.04004C9.24888 4.8084 11.8955 3.03805 14.8091 1.83008C17.7226 0.622101 20.846 0.000147051 24 0C30.3652 0 36.4693 2.52867 40.9702 7.02954C45.4711 11.5304 48 17.6348 48 24V24Z" fill="#0052B4"/>
<path d="M48 24C48 30.3652 45.4711 36.4697 40.9702 40.9706C36.4693 45.4715 30.3652 48 24 48C20.8473 48.0025 17.725 47.3838 14.8115 46.1793C11.898 44.9748 9.25052 43.2081 7.02002 40.9801L24 24H48Z" fill="#D80027"/>
<path d="M24 23.999L7.02003 40.9791C4.792 38.7486 3.02532 36.101 1.82081 33.1875C0.616294 30.274 -0.00247166 27.1517 7.41988e-06 23.999C0.0003043 17.6388 2.5252 11.5389 7.02003 7.03906L24 23.999Z" fill="#F3F4F5"/>
</svg>
