<svg width="48" height="48" viewBox="0 0 48 48" fill="none" xmlns="http://www.w3.org/2000/svg">
<path d="M4.24417e-06 24C0.000623649 28.8991 1.50052 33.6807 4.2982 37.7025C7.09589 41.7242 11.0573 44.7934 15.6504 46.4977L17.7411 23.9915L15.6532 1.48389C11.0567 3.18884 7.09258 6.26063 4.29412 10.286C1.49566 14.3114 -0.00291061 19.0974 4.24417e-06 24Z" fill="#6DA544"/>
<path d="M48 23.9986C47.9975 20.1285 47.0597 16.3164 45.2666 12.8869C43.4734 9.4574 40.8779 6.51207 37.7012 4.3018C34.5245 2.09152 30.8607 0.681766 27.0218 0.192604C23.1829 -0.296559 19.2826 0.149362 15.6532 1.49239V46.5076C19.2828 47.8507 23.1834 48.2966 27.0225 47.8073C30.8616 47.318 34.5256 45.908 37.7024 43.6974C40.8792 41.4868 43.4746 38.5411 45.2676 35.1112C47.0605 31.6813 47.9979 27.8689 48 23.9986Z" fill="#D80027"/>
<path d="M15.6522 32.3478C20.2624 32.3478 23.9997 28.6104 23.9997 24.0001C23.9997 19.3897 20.2624 15.6523 15.6522 15.6523C11.042 15.6523 7.30469 19.3897 7.30469 24.0001C7.30469 28.6104 11.042 32.3478 15.6522 32.3478Z" fill="#FFDA44"/>
<path d="M10.958 19.8252V25.0487C10.9794 26.2801 11.4835 27.4539 12.3619 28.3171C13.2402 29.1804 14.4225 29.6642 15.6541 29.6642C16.8857 29.6642 18.068 29.1804 18.9463 28.3171C19.8247 27.4539 20.3289 26.2801 20.3502 25.0487V19.8252H10.958Z" fill="#D80027"/>
<path d="M15.6546 26.6107C15.2396 26.6099 14.8418 26.4447 14.5484 26.1513C14.2549 25.8578 14.0897 25.46 14.089 25.045V22.957H17.2202V25.045C17.2194 25.46 17.0543 25.8578 16.7608 26.1513C16.4674 26.4447 16.0696 26.6099 15.6546 26.6107Z" fill="#F0F0F0"/>
</svg>
