<svg width="48" height="48" viewBox="0 0 48 48" fill="none" xmlns="http://www.w3.org/2000/svg">
<path d="M24.0003 48C37.2547 48 47.9995 37.2548 47.9995 24C47.9995 10.7452 37.2547 0 24.0003 0C10.7458 0 0.000976562 10.7452 0.000976562 24C0.000976562 37.2548 10.7458 48 24.0003 48Z" fill="white"/>
<path d="M46.6208 15.998H31.8358C32.4737 21.2814 32.4737 26.6224 31.8358 31.9058H46.6335C48.4299 26.7535 48.4184 21.143 46.601 15.998H46.6208Z" fill="#3757A6"/>
<path d="M31.8356 15.998H46.6135V15.9769C45.0762 11.6506 42.3309 7.85572 38.7028 5.04203C35.0748 2.22835 30.7162 0.513794 26.1436 0.101562C29.8253 2.11756 30.8968 8.49592 31.8356 15.998Z" fill="#EFEFEF"/>
<path d="M26.1504 47.9041C30.7304 47.4898 35.0951 45.7689 38.7256 42.9462C42.3561 40.1234 45.0997 36.3174 46.6302 31.9808L46.6542 31.9116H31.8481C30.9149 39.4575 29.8491 45.8754 26.1504 47.9041Z" fill="#E73B36"/>
<path d="M1.38297e-05 23.9999C-0.00287762 26.6914 0.447649 29.3641 1.33268 31.9058H33.0823C33.7202 26.6224 33.7202 21.2814 33.0823 15.998H1.3708C0.461829 18.5679 -0.00175774 21.2741 1.38297e-05 23.9999Z" fill="#3757A6"/>
<path d="M1.37787 15.9769V15.9981H33.0809C32.1308 8.49459 29.8114 2.11765 26.1508 0.101647C25.4407 0.0367059 24.7221 0 23.9965 0C19.0376 9.46021e-05 14.2004 1.53637 10.1501 4.39759C6.09986 7.25881 3.03532 11.3045 1.37787 15.9784V15.9769Z" fill="#EFEFEF"/>
<path d="M33.0833 31.9058H1.33789L1.36189 31.9749C3.01293 36.6595 6.07671 40.7164 10.1307 43.5861C14.1847 46.4558 19.0292 47.997 23.996 47.9971C24.7245 47.9971 25.4416 47.9618 26.1503 47.8982C29.8377 45.8752 32.1516 39.4601 33.0833 31.9058Z" fill="#E73B36"/>
</svg>
