<svg width="64" height="64" viewBox="0 0 64 64" fill="none" xmlns="http://www.w3.org/2000/svg">
<rect width="64" height="64" fill="#FFC50D"/>
<path d="M45.5585 43.4304L39.4085 37.2904C41.2805 34.8792 42.1631 31.8452 41.8768 28.8061C41.5905 25.7669 40.1567 22.9512 37.8673 20.932C35.5779 18.9128 32.6051 17.842 29.554 17.9375C26.5029 18.0331 23.6029 19.2879 21.4444 21.4464C19.2859 23.6049 18.0311 26.5048 17.9356 29.5559C17.84 32.607 18.9108 35.5799 20.93 37.8692C22.9492 40.1586 25.765 41.5924 28.8041 41.8788C31.8432 42.1651 34.8773 41.2824 37.2885 39.4104L43.4385 45.5605C43.721 45.8416 44.1035 45.999 44.502 45.9981C44.9006 45.9971 45.2824 45.8379 45.5635 45.5554C45.8446 45.273 46.002 44.8904 46.0011 44.4919C46.0002 44.0934 45.841 43.7116 45.5585 43.4304ZM20.9985 29.9605C20.9985 28.1804 21.5263 26.4403 22.5153 24.9603C23.5042 23.4803 24.9098 22.3267 26.5544 21.6455C28.1989 20.9643 30.0085 20.7861 31.7543 21.1334C33.5001 21.4807 35.1038 22.3379 36.3625 23.5965C37.6211 24.8552 38.4783 26.4588 38.8256 28.2046C39.1728 29.9504 38.9946 31.7601 38.3134 33.4046C37.6322 35.0492 36.4787 36.4548 34.9986 37.4437C33.5186 38.4326 31.7785 38.9605 29.9985 38.9605C28.8166 38.9605 27.6463 38.7276 26.5544 38.2754C25.4624 37.8231 24.4703 37.1602 23.6345 36.3244C22.7988 35.4887 22.1359 34.4966 21.6836 33.4046C21.2313 32.3127 20.9985 31.1424 20.9985 29.9605Z" fill="#153743"/>
</svg>
