<svg width="48" height="48" viewBox="0 0 48 48" fill="none" xmlns="http://www.w3.org/2000/svg">
<path d="M44.8002 12H3.22021C5.32626 8.35219 8.35533 5.32294 12.0029 3.21654C15.6505 1.11015 19.7879 0.000809062 23.9999 0C28.212 0.000809062 32.3499 1.11015 35.9975 3.21654C39.645 5.32294 42.6741 8.35219 44.7801 12H44.8002Z" fill="#B5002A"/>
<path d="M44.7801 36C42.6741 39.6478 39.645 42.677 35.9975 44.7834C32.3499 46.8898 28.212 47.9992 23.9999 48C19.7879 47.9992 15.6505 46.8898 12.0029 44.7834C8.35533 42.677 5.32626 39.6478 3.22021 36H44.7801Z" fill="#B5002A"/>
<path d="M47.9999 24C48.0103 28.2122 46.9066 32.3522 44.8002 35.9999H3.20026C1.09392 32.3522 -0.0102796 28.2122 7.21193e-05 24C0.00100316 19.7892 1.10443 15.6521 3.20026 12H44.8002C46.8961 15.6521 47.999 19.7892 47.9999 24V24Z" fill="#F4C327"/>
</svg>
