<svg width="64" height="64" viewBox="0 0 64 64" fill="none" xmlns="http://www.w3.org/2000/svg">
<rect width="64" height="64" fill="#FFC50D"/>
<path d="M42.0332 23.1236C41.2777 21.0366 39.8975 19.2331 38.0804 17.9585C36.2634 16.6839 34.0978 16 31.8782 16C29.6587 16 27.4931 16.6839 25.676 17.9585C23.859 19.2331 22.4788 21.0366 21.7232 23.1236C19.0966 23.6362 16.7542 25.1067 15.1508 27.2494C13.5475 29.3921 12.7977 32.0543 13.0469 34.7188C13.2962 37.3834 14.5268 39.8602 16.4997 41.6684C18.4726 43.4766 21.0471 44.487 23.7232 44.5036H25.9032C26.3011 44.5036 26.6826 44.3456 26.9639 44.0643C27.2452 43.783 27.4032 43.4014 27.4032 43.0036C27.4032 42.6058 27.2452 42.2242 26.9639 41.9429C26.6826 41.6616 26.3011 41.5036 25.9032 41.5036H23.7632C21.7695 41.4916 19.8563 40.7155 18.4175 39.3353C16.9787 37.9551 16.1239 36.0758 16.0291 34.0843C15.9342 32.0928 16.6066 30.1408 17.9077 28.6301C19.2088 27.1194 21.0397 26.1651 23.0232 25.9636C23.3307 25.9357 23.6219 25.8129 23.8566 25.6122C24.0913 25.4116 24.2578 25.143 24.3332 24.8436C24.7671 23.1714 25.7439 21.6905 27.1104 20.6333C28.4768 19.5761 30.1556 19.0026 31.8832 19.0026C33.6109 19.0026 35.2896 19.5761 36.6561 20.6333C38.0225 21.6905 38.9993 23.1714 39.4332 24.8436C39.5073 25.1437 39.6734 25.4131 39.9084 25.614C40.1433 25.8148 40.4353 25.9371 40.7432 25.9636C42.7812 26.0965 44.6855 27.0244 46.046 28.5475C47.4065 30.0707 48.1145 32.0672 48.0175 34.1072C47.9205 36.1472 47.0262 38.0675 45.5273 39.4546C44.0283 40.8417 42.0446 41.5847 40.0032 41.5236H37.9032C37.5054 41.5236 37.1239 41.6816 36.8426 41.963C36.5613 42.2443 36.4032 42.6258 36.4032 43.0236C36.4032 43.4214 36.5613 43.803 36.8426 44.0843C37.1239 44.3656 37.5054 44.5236 37.9032 44.5236H40.0032C42.6794 44.5071 45.2539 43.4965 47.2268 41.6884C49.1997 39.8802 50.4303 37.4033 50.6795 34.7388C50.9288 32.0742 50.179 29.4121 48.5756 27.2694C46.9723 25.1267 44.6299 23.6562 42.0032 23.1436L42.0332 23.1236Z" fill="#153743"/>
<path d="M36.7945 34.9139C36.9334 35.0537 37.0985 35.1645 37.2805 35.24C37.4624 35.3156 37.6575 35.3543 37.8545 35.3539C38.1502 35.3517 38.4385 35.2621 38.6835 35.0965C38.9284 34.931 39.1189 34.6967 39.2311 34.4231C39.3433 34.1496 39.3721 33.8491 39.314 33.5592C39.2559 33.2693 39.1135 33.0031 38.9045 32.7939L32.9045 26.7939C32.7627 26.655 32.5966 26.5432 32.4145 26.4639C32.0634 26.331 31.6757 26.331 31.3245 26.4639C31.1381 26.5406 30.9683 26.6527 30.8245 26.7939L24.8245 32.7939C24.605 33.0807 24.4963 33.4371 24.5184 33.7975C24.5406 34.158 24.692 34.4984 24.9449 34.7562C25.1978 35.014 25.5353 35.1719 25.8953 35.2009C26.2553 35.2298 26.6136 35.128 26.9045 34.9139L30.3745 31.5239V45.5239C30.3745 45.9217 30.5326 46.3033 30.8139 46.5846C31.0952 46.8659 31.4767 47.0239 31.8745 47.0239C32.2724 47.0239 32.6539 46.8659 32.9352 46.5846C33.2165 46.3033 33.3745 45.9217 33.3745 45.5239V31.5239L36.7945 34.9139Z" fill="#153743"/>
</svg>
